<?xml version="1.0" encoding="utf-8"?>
<!-- Generator: Adobe Illustrator 16.0.0, SVG Export Plug-In . SVG Version: 6.00 Build 0)  -->
<!DOCTYPE svg PUBLIC "-//W3C//DTD SVG 1.1//EN" "http://www.w3.org/Graphics/SVG/1.1/DTD/svg11.dtd">
<svg version="1.1" id="Layer_1" xmlns="http://www.w3.org/2000/svg" xmlns:xlink="http://www.w3.org/1999/xlink" x="0px" y="0px"
	 width="50px" height="50px" viewBox="0 0 50 50" enable-background="new 0 0 50 50" xml:space="preserve">
<g>
	<g>
		<path fill="currentColor" d="M29.775,28.558c3.969-1.796,6.736-5.836,6.736-10.475c0-6.361-5.166-11.523-11.523-11.523
			c-6.336,0-11.525,5.162-11.525,11.523c0,4.513,2.596,8.431,6.385,10.301c-5.611,2.096-9.354,8.056-9.699,14.093
			c-0.076,1.297,1.918,1.272,1.996,0c0.896-16.562,24.814-16.562,25.715,0c0.074,1.272,2.07,1.297,1.992,0
			C39.504,35.768,35.613,30.604,29.775,28.558z M24.291,27.585c-4.914-0.348-8.832-4.464-8.832-9.502
			c0-5.239,4.289-9.529,9.529-9.529c5.262,0,9.553,4.29,9.553,9.529c0,5.261-4.291,9.526-9.553,9.526
			C24.738,27.585,24.514,27.585,24.291,27.585z"/>
	</g>
</g>
</svg>
