<?xml version="1.0" encoding="utf-8"?>
<!-- Generator: Adobe Illustrator 16.0.0, SVG Export Plug-In . SVG Version: 6.00 Build 0)  -->
<!DOCTYPE svg PUBLIC "-//W3C//DTD SVG 1.1//EN" "http://www.w3.org/Graphics/SVG/1.1/DTD/svg11.dtd">
<svg version="1.1" id="Layer_1" xmlns="http://www.w3.org/2000/svg" xmlns:xlink="http://www.w3.org/1999/xlink" x="0px" y="0px"
	 width="100px" height="100px" viewBox="0 0 120 120" enable-background="new 0 0 120 120" xml:space="preserve">
<g>
	<path fill-rule="evenodd" clip-rule="evenodd" fill="currentColor" d="M50.073,56.35c2.252,0.109,4.293,0.65,6.115,1.885
		c2.371,1.612,3.855,3.892,4.729,6.551c1.736,5.342,1.836,10.743,0.092,16.089c-1.68,5.136-5.328,8.511-10.211,10.59
		c-3.488,1.485-7.16,2.065-10.936,2.062c-11.377-0.008-22.75-0.015-34.129,0.015c-0.822,0.006-0.963-0.22-0.963-0.994
		c0.023-22.207,0.018-44.407,0.02-66.612c0-0.438-0.191-0.919,0.652-0.913c12.154,0.042,24.309-0.029,36.469,0.081
		c4.176,0.039,8.082,1.251,11.475,3.823c3.691,2.802,5.584,6.629,6.211,11.135c0.447,3.275,0.328,6.503-1.033,9.587
		c-1.523,3.444-4.27,5.423-7.834,6.392C50.542,56.094,50.306,56.038,50.073,56.35z M30.864,63.045c-3.199,0-6.4,0.009-9.6-0.012
		c-0.561,0-0.771,0.097-0.764,0.729c0.029,5.638,0.023,11.276,0,16.921c-0.004,0.582,0.176,0.692,0.713,0.684
		c2.959-0.021,5.914-0.01,8.869-0.01c3.172,0,6.34,0.041,9.508-0.011c3.83-0.068,6.367-1.744,7.463-4.897
		c0.764-2.19,0.764-4.457,0.35-6.708c-0.811-4.445-3.537-6.696-8.037-6.696C36.53,63.045,33.704,63.045,30.864,63.045z
		 M30.784,37.192c-3.164,0-6.336,0.015-9.504-0.008c-0.561-0.009-0.787,0.096-0.779,0.728c0.029,4.651,0.02,9.291,0.008,13.938
		c-0.008,0.446,0.08,0.627,0.58,0.623c6.336-0.025,12.67,0.004,19.01-0.059c2.076-0.022,3.619-1.019,4.371-3.045
		c0.916-2.467,1.045-5.014,0.545-7.559c-0.58-2.932-2.543-4.796-5.813-4.641C36.399,37.299,33.591,37.192,30.784,37.192z"/>
	<path fill-rule="evenodd" clip-rule="evenodd" fill="currentColor" d="M97.31,72.191c-5.607,0-11.225,0.014-16.83-0.018
		c-0.705-0.004-0.916,0.146-0.873,0.895c0.205,3.707,1.389,6.897,4.596,9.066c1.635,1.102,3.467,1.67,5.414,1.849
		c3.193,0.297,6.344,0.127,9.248-1.408c2.092-1.108,3.396-2.842,3.668-5.253c0.047-0.416,0.172-0.58,0.6-0.58
		c3.652,0.012,7.303,0.012,10.955,0c0.439,0,0.559,0.143,0.553,0.58c-0.152,6.24-2.713,11.077-8.213,14.229
		c-3.521,2.021-7.365,2.975-11.367,3.275c-5.305,0.402-10.545,0.089-15.584-1.84c-6.549-2.502-10.785-7.217-12.992-13.78
		c-2.719-8.067-1.975-15.966,1.707-23.535c3.521-7.217,9.396-11.446,17.344-12.716c5.443-0.884,10.818-0.699,16.029,1.297
		c4.168,1.591,7.416,4.32,9.691,8.171c2.813,4.752,3.848,9.965,3.969,15.403c0.035,1.199-0.09,2.404-0.096,3.605
		c-0.01,0.655-0.297,0.778-0.889,0.773C108.595,72.179,102.956,72.191,97.31,72.191z M90.616,63.045c3.5,0,7-0.015,10.5,0.017
		c0.645,0,0.816-0.172,0.752-0.807c-0.26-2.543-1.016-4.897-2.783-6.81c-2.9-3.129-8.852-3.904-13.043-1.784
		c-3.572,1.817-5.432,4.881-6.443,8.608c-0.18,0.668-0.045,0.792,0.615,0.788C83.683,63.033,87.149,63.045,90.616,63.045z"/>
	<path fill-rule="evenodd" clip-rule="evenodd" fill="currentColor" d="M90.517,37.515c-4.398,0-8.799-0.011-13.197,0.012
		c-0.668,0.005-0.877-0.157-0.863-0.844c0.043-2.292,0.039-4.578,0-6.872c-0.01-0.606,0.174-0.764,0.758-0.762
		c8.932,0.015,17.85,0.015,26.773,0c0.588-0.002,0.777,0.151,0.764,0.755c-0.035,2.294-0.039,4.582,0.004,6.87
		c0.014,0.672-0.168,0.861-0.852,0.853C99.448,37.502,94.981,37.515,90.517,37.515z"/>
</g>
</svg>
