<?xml version="1.0" encoding="utf-8"?>
<!-- Generator: Adobe Illustrator 16.0.0, SVG Export Plug-In . SVG Version: 6.00 Build 0)  -->
<!DOCTYPE svg PUBLIC "-//W3C//DTD SVG 1.1//EN" "http://www.w3.org/Graphics/SVG/1.1/DTD/svg11.dtd">
<svg version="1.1" id="Layer_1" xmlns="http://www.w3.org/2000/svg" xmlns:xlink="http://www.w3.org/1999/xlink" x="0px" y="0px"
	 width="120px" height="65.075px" viewBox="0 0 120 65.075" enable-background="new 0 0 120 65.075" xml:space="preserve">
<path fill-rule="evenodd" clip-rule="evenodd" fill="#AB88FF" d="M84.603,65.066c-0.121,0.041-0.179-0.072-0.249-0.127
	c-1.768-1.368-3.535-2.738-5.297-4.107c-5.771-4.474-11.543-8.949-17.305-13.433c-0.226-0.176-0.324-0.105-0.497,0.029
	c-7.493,5.816-14.988,11.633-22.488,17.443c-0.099,0.077-0.183,0.244-0.335,0.184c-0.163-0.062-0.114-0.232-0.114-0.365
	c0-20.692,0-41.386,0-62.077c0-1.455,1.252-2.529,2.947-2.529c13.512-0.002,27.023-0.002,40.537,0c1.685,0,2.924,1.083,2.926,2.545
	v62.178C84.729,64.91,84.729,65.022,84.603,65.066z"/>
</svg>
