<?xml version="1.0" encoding="utf-8"?>
<!-- Generator: Adobe Illustrator 16.0.0, SVG Export Plug-In . SVG Version: 6.00 Build 0)  -->
<!DOCTYPE svg PUBLIC "-//W3C//DTD SVG 1.1//EN" "http://www.w3.org/Graphics/SVG/1.1/DTD/svg11.dtd">
<svg version="1.1" id="Layer_1" xmlns="http://www.w3.org/2000/svg" xmlns:xlink="http://www.w3.org/1999/xlink" x="0px" y="0px"
	 width="50px" height="50px" viewBox="0 0 50 50" enable-background="new 0 0 50 50" xml:space="preserve">
<g>
	<path fill-rule="evenodd" clip-rule="evenodd" fill="#AB88FF" d="M9.334,3.257c0.306-0.22,0.631-0.403,0.98-0.539
		c0.342-0.087,0.688-0.101,1.038-0.101c5.978,0.004,11.954,0.004,17.932,0.004c3.189,0,6.38,0.001,9.568-0.005
		c0.355-0.001,0.692,0.071,1.027,0.171c0.419,0.193,0.788,0.459,1.119,0.777l0,0c0.281,0.337,0.512,0.704,0.676,1.112
		c0.083,0.324,0.123,0.65,0.12,0.983c0,0.351,0,0.701,0,1.051s0,0.699,0,1.048c0,0.351,0,0.7,0,1.051c0,0.349,0,0.698,0,1.048
		s0,0.7,0,1.05s0,0.698,0,1.048c0,0.351,0,0.7,0,1.051c0,0.35,0,0.698,0,1.048c0,0.351,0,0.699,0,1.05c0,0.35,0,0.698,0,1.048
		c0,0.351,0,0.7,0,1.05s0,0.699,0,1.049s0,0.7,0,1.05s0,0.698,0,1.048c0,0.351,0,0.7,0,1.05s0,0.698,0,1.048
		c0,0.351,0,0.701,0,1.051s0,0.699,0,1.048c0,0.351,0,0.7,0,1.05s0,0.699,0,1.048c0,0.351,0,0.7,0,1.05s0,0.699,0,1.049
		s0,0.7,0,1.051c0,0.349,0,0.698,0,1.047c0,0.351,0,0.7,0,1.05s0,0.699,0,1.048c0,0.351,0,0.701,0,1.051s0,0.699,0,1.048
		c0,0.351,0,0.7,0,1.051c0,0.349,0,0.698,0,1.046c0,0.352,0,0.701,0,1.052c-0.002,0.35-0.004,0.698-0.006,1.048
		c-0.068,0.368-0.18,0.721-0.358,1.051c-0.143,0.193-0.286,0.387-0.429,0.579c-0.178,0.155-0.355,0.31-0.534,0.465
		c-0.178,0.097-0.356,0.193-0.534,0.292c-0.333,0.121-0.678,0.196-1.035,0.201c-0.348,0-0.696,0.001-1.045,0.003
		c-0.351,0-0.701-0.001-1.052-0.001c-0.349,0-0.698,0-1.046,0c-0.403,0-0.807,0.001-1.209,0.001c-0.349,0-0.697,0-1.047,0
		c-0.351-0.001-0.701-0.001-1.051-0.001s-0.698,0.001-1.048,0.001c-0.351,0-0.7-0.001-1.052-0.001
		c-0.348,0.001-0.696,0.001-1.045,0.001c-0.352-0.001-0.702-0.001-1.052-0.001s-0.698,0-1.048,0s-0.7,0-1.051,0
		c-0.349-0.001-0.695-0.002-1.045-0.002c-0.103-0.035-0.111,0.031-0.11,0.106c0.003,0.151,0.007,0.303,0.01,0.455
		c0,1.655,0,3.312,0,4.968c-0.02,0.013-0.041,0.024-0.062,0.036c-0.3-0.308-0.598-0.618-0.901-0.923
		c-1.029-1.033-2.063-2.061-3.088-3.099c-0.134-0.134-0.215-0.146-0.308,0.02c-1.274,1.272-2.549,2.543-3.826,3.813
		c-0.063,0.063-0.103,0.164-0.216,0.167c-0.002-0.262-0.005-0.525-0.007-0.787c0-0.351,0-0.7,0-1.05s0-0.698,0-1.048
		s0-0.699,0-1.051c0-0.35,0-0.697,0-1.047c0.004-0.139,0-0.278,0.012-0.417c0.01-0.133-0.049-0.16-0.168-0.157
		c-0.277,0.011-0.557,0.011-0.835,0.015c-0.349,0.001-0.696,0.001-1.046,0.001c-0.367,0.001-0.734,0.001-1.104,0.001
		c-0.348,0-0.696,0-1.046-0.001c-0.351,0-0.702,0-1.053,0c-0.326-0.02-0.655,0-0.976-0.084c-0.779-0.268-1.378-0.762-1.815-1.458
		c-0.1-0.243-0.201-0.489-0.301-0.732c0.009-0.11-0.024-0.213-0.058-0.315c-0.001-0.35-0.002-0.698-0.004-1.048
		c0-0.351,0-0.7,0-1.052c0-0.348,0-0.697,0-1.046c0-0.351,0-0.7,0-1.051c0-0.349,0-0.698,0-1.048s0-0.7,0-1.051
		c0-0.349,0-0.698,0-1.047c0-0.351,0-0.7,0-1.051c0-0.349,0-0.698,0-1.047c0-0.351,0-0.701,0-1.051s0-0.699,0-1.049s0-0.699,0-1.05
		c0-0.349,0-0.698,0-1.047c0-0.351,0-0.7,0-1.051c0-0.349,0-0.698,0-1.048s0-0.7,0-1.051c0-0.35,0-0.698,0-1.048s0-0.699,0-1.05
		c0-0.35,0-0.698,0-1.048s0-0.7,0-1.05s0-0.699,0-1.049s0-0.699,0-1.05c0-0.35,0-0.698,0-1.048c0-0.351,0-0.699,0-1.05
		c0-0.35,0-0.698,0-1.048c0-0.351,0-0.7,0-1.051c0-0.35,0-0.698,0-1.048s0-0.7,0-1.05s0-0.699,0-1.048c0-0.351,0-0.7,0-1.051
		c0-0.349,0-0.698,0-1.048s0-0.7,0-1.051C8.171,4.877,8.467,4.214,8.955,3.622C9.08,3.501,9.208,3.379,9.334,3.257z M38.991,25.596
		c0.001-0.352,0.003-0.701,0.003-1.053c0-0.349,0-0.697,0-1.046c0-0.351,0-0.702,0.002-1.052c0-0.35,0-0.698,0.001-1.047
		c0-0.351,0-0.7,0-1.052c0.021-0.64,0.013-1.278-0.035-1.917c0.091-0.117,0.046-0.252,0.046-0.379
		c0.009-3.492,0.014-6.985,0.018-10.478c0.001-0.646,0.002-1.293,0.009-1.939c0.001-0.139-0.003-0.231-0.188-0.221
		c-0.33,0.02-0.662,0.016-0.993,0.021c-0.349-0.03-0.698-0.027-1.046-0.002c-0.353-0.026-0.703-0.026-1.055,0
		c-0.4-0.026-0.801-0.026-1.201,0c-0.352-0.025-0.702-0.026-1.053,0c-0.349-0.026-0.697-0.026-1.047,0
		c-0.35-0.025-0.701-0.026-1.051,0c-0.35-0.026-0.698-0.026-1.045,0c-0.352-0.025-0.703-0.026-1.055,0
		c-0.348-0.026-0.697-0.026-1.046,0c-0.351-0.026-0.7-0.026-1.051,0c-0.349-0.026-0.698-0.026-1.046,0
		c-0.352-0.026-0.703-0.026-1.055,0c-0.365-0.026-0.73-0.026-1.096,0c-0.352-0.025-0.702-0.026-1.053,0
		c-0.35-0.026-0.697-0.026-1.045,0c-0.352-0.025-0.702-0.026-1.054,0c-0.347-0.026-0.696-0.026-1.046,0
		c-0.35-0.025-0.701-0.026-1.052,0C18.409,5.407,18.06,5.4,17.71,5.435c-0.318-0.005-0.639-0.006-0.958-0.019
		c-0.119-0.004-0.146,0.044-0.145,0.152c0.008,0.38,0.008,0.762,0.012,1.142c0,0.351,0,0.7,0,1.05s0,0.699,0,1.048
		c0,0.351,0,0.701,0,1.051s0,0.699,0,1.048c0,0.35,0,0.7,0,1.05s0,0.699,0,1.048c0,0.351,0,0.701,0,1.051s0,0.698,0,1.048
		s0,0.7,0,1.05s0,0.699,0,1.048c0,0.351,0,0.7,0,1.051c0,0.349,0,0.698,0,1.047c0,0.351,0,0.701,0,1.052c0,0.349,0,0.698,0,1.047
		c0,0.35,0,0.7,0,1.051c0,0.35,0,0.698,0,1.047c0,0.351,0,0.701,0,1.051s0,0.698,0,1.048s0,0.7,0,1.051c0,0.35,0,0.698,0,1.048
		s0,0.699,0,1.05c0,0.35,0,0.698,0,1.048c-0.002,0.245-0.002,0.491-0.003,0.736c0,0.035-0.024,0.084,0.044,0.084
		c0.351-0.002,0.701-0.002,1.051-0.002s0.699,0,1.048,0c0.351,0,0.702,0,1.052,0s0.697,0,1.046,0c0.351,0,0.701,0,1.052,0
		c0.348,0,0.697,0,1.047,0s0.701,0,1.051,0c0.367,0,0.733,0,1.1,0c0.35,0,0.7,0,1.051,0c0.35,0,0.698,0,1.047,0
		c0.351,0,0.701,0,1.052,0c0.349,0,0.697,0,1.046,0c0.352,0,0.702,0,1.052,0s0.698,0,1.048,0s0.7,0,1.051,0
		c0.349,0.002,0.697,0.002,1.045,0.003c0.353,0,0.703,0,1.055,0c0.4-0.001,0.801-0.001,1.202-0.003c0.351,0,0.701,0,1.052,0
		c0.35,0,0.697,0,1.047,0s0.701,0,1.051,0c0.098,0.014,0.09-0.056,0.089-0.115c-0.001-0.234-0.004-0.467-0.008-0.7
		c0.022-0.352,0.022-0.702,0-1.056c0.001-0.347,0.004-0.695,0.005-1.043c0-0.351,0.001-0.701,0.002-1.053
		C38.99,26.292,38.99,25.943,38.991,25.596z M11.026,33.984c-0.024,0.352-0.023,0.701-0.001,1.053
		c-0.023,0.349-0.024,0.697,0.001,1.045c-0.024,0.352-0.023,0.703-0.001,1.053c-0.005,0.174-0.022,0.346-0.012,0.518
		c0.05,0.718,0.698,1.343,1.398,1.355c0.35,0,0.701,0,1.051,0c0.367,0,0.732,0,1.1,0c0.352,0,0.701,0,1.051,0
		c0.314,0,0.629,0,0.943,0.001c0.038,0.011,0.051-0.005,0.045-0.04c0-0.264,0-0.524,0-0.786c0-0.351,0-0.7,0-1.052
		c0.002-0.093,0-0.188,0.01-0.283c0.023-0.217-0.063-0.441,0.051-0.652c0.105,0.005,0.209,0.015,0.313,0.015
		c2.595,0.003,5.191,0.006,7.785,0c0.19,0,0.249,0.037,0.247,0.242c-0.011,0.839,0,1.678,0.004,2.517
		c0.004,0.043,0.032,0.051,0.069,0.05c0.359-0.004,0.718-0.007,1.076-0.011c0.35,0,0.698,0,1.048,0c0.351,0,0.7,0,1.051,0
		c0.349,0,0.698,0,1.047,0c0.351,0,0.701,0,1.051,0c0.349,0,0.698,0,1.048,0s0.7,0,1.051,0c0.349,0,0.698,0,1.047,0
		c0.351,0,0.701,0,1.051,0c0.402,0,0.803,0,1.204,0c0.351,0,0.7,0,1.052,0c0.35-0.002,0.701,0.058,1.048-0.039
		c0.468-0.088,0.779-0.372,0.986-0.789c0.107-0.157,0.145-0.342,0.145-0.521c0.005-1.223,0-2.446-0.003-3.669
		c0.004-0.146,0.012-0.291,0.014-0.437c0-0.062,0.024-0.151-0.096-0.131c-0.348,0-0.696,0.001-1.045,0.001c-0.351,0-0.701,0-1.051,0
		s-0.699,0-1.048,0c-0.402,0-0.806,0-1.207,0c-0.35,0-0.698,0-1.048,0c-0.351,0-0.701,0-1.051,0s-0.698,0-1.048,0
		c-0.351,0-0.7,0-1.051,0c-0.349,0-0.697-0.001-1.046-0.001c-0.352,0-0.702,0-1.053,0c-0.349,0-0.697,0.001-1.047,0.001
		s-0.7,0-1.051,0c-0.349,0-0.698,0-1.047,0c-0.368,0-0.735,0-1.104,0c-0.35,0-0.698,0-1.047,0c-0.351,0-0.701,0-1.052,0
		c-0.349,0-0.697,0-1.046,0c-0.35,0-0.701,0-1.051,0s-0.699,0-1.047,0c-0.352,0-0.701,0-1.052,0c-0.35,0-0.698,0-1.046,0
		c-0.352,0-0.701,0-1.051,0s-0.699,0-1.049,0c-0.367,0-0.734,0-1.104,0c-0.348,0-0.696,0-1.046,0c-0.351,0-0.702,0-1.052,0
		C11.01,33.4,11.01,33.4,11.012,33.756C11.013,33.832,11.021,33.908,11.026,33.984z"/>
	<path fill-rule="evenodd" clip-rule="evenodd" fill="#AB88FF" d="M19.809,16.631c-0.385-0.025-0.385-0.025-0.42-0.479
		c0-0.35,0-0.7,0-1.05s0-0.698,0-1.048c-0.029-0.363,0.267-0.192,0.42-0.256c0.35,0.026,0.701,0.029,1.051,0
		c0.349,0.026,0.698,0.027,1.047,0.001c0.163,0.014,0.352-0.007,0.316,0.254c0,0.351,0,0.699,0,1.049s0,0.7,0,1.05
		c-0.053,0.194,0.12,0.538-0.315,0.479c-0.35,0-0.699,0-1.048,0C20.51,16.631,20.158,16.631,19.809,16.631z"/>
	<path fill-rule="evenodd" clip-rule="evenodd" fill="#AB88FF" d="M19.389,8.809c0.005-0.052,0.013-0.104,0.014-0.153
		c0.004-0.416,0.004-0.416,0.404-0.445c0.352,0,0.703,0,1.053,0c0.349,0,0.697,0,1.046,0.001c0.267-0.035,0.345,0.095,0.306,0.34
		c-0.012,0.083,0.007,0.172,0.011,0.258c0.001,0.35,0.001,0.699,0.001,1.049s0,0.7,0,1.049c-0.043,0.205-0.216,0.062-0.314,0.119
		c-0.351,0-0.701,0-1.052,0c-0.349,0-0.698,0-1.046,0c-0.133-0.068-0.334,0.109-0.422-0.119c0.021-0.349,0.021-0.698,0-1.049
		C19.389,9.508,19.389,9.158,19.389,8.809z"/>
	<path fill-rule="evenodd" clip-rule="evenodd" fill="#AB88FF" d="M22.223,27.691c-0.036,0.208-0.215,0.077-0.314,0.133
		c-0.351-0.021-0.701-0.021-1.051,0c-0.35,0-0.699,0-1.047,0c-0.131-0.076-0.345,0.113-0.422-0.133c0.021-0.35,0.021-0.699,0-1.049
		c0-0.35,0-0.7,0-1.05c0.005-0.051,0.013-0.102,0.014-0.153c0.004-0.408,0.004-0.408,0.406-0.434c0.35,0,0.701,0,1.051,0
		c0.349,0,0.698,0,1.047,0c0.264-0.039,0.344,0.087,0.306,0.333c-0.013,0.082,0.006,0.169,0.011,0.254
		c-0.021,0.351-0.021,0.7,0,1.05C22.223,26.992,22.223,27.342,22.223,27.691z"/>
	<path fill-rule="evenodd" clip-rule="evenodd" fill="#AB88FF" d="M19.389,21.396c0-0.349,0-0.698,0-1.048
		c0.005-0.214,0.022-0.429,0.009-0.641c-0.015-0.222,0.032-0.347,0.285-0.3c0.04,0.008,0.085-0.005,0.128-0.008
		c0.724,0.003,1.449,0.014,2.173,0.006c0.189-0.003,0.239,0.056,0.231,0.235c-0.014,0.234,0.004,0.471,0.008,0.707
		c0,0.35,0,0.699,0,1.048c-0.004,0.166-0.028,0.331-0.008,0.492c0.029,0.246-0.043,0.375-0.308,0.347
		c-0.35-0.023-0.699-0.022-1.048,0c-0.35-0.022-0.701-0.023-1.051,0c-0.406-0.034-0.406-0.034-0.407-0.45
		C19.4,21.656,19.394,21.527,19.389,21.396z"/>
</g>
</svg>
