<?xml version="1.0" encoding="utf-8"?>
<!-- Generator: Adobe Illustrator 16.0.0, SVG Export Plug-In . SVG Version: 6.00 Build 0)  -->
<!DOCTYPE svg PUBLIC "-//W3C//DTD SVG 1.1//EN" "http://www.w3.org/Graphics/SVG/1.1/DTD/svg11.dtd">
<svg version="1.1" id="Layer_1" xmlns="http://www.w3.org/2000/svg" xmlns:xlink="http://www.w3.org/1999/xlink" x="0px" y="0px"
	 width="50px" height="50px" viewBox="0 0 50 50" enable-background="new 0 0 50 50" xml:space="preserve">
<g>
	<path fill="#9B9B9B" d="M30.605,35.938l-5.563-7.202l-5.699,7.202c-0.826,1.004-1.523,1.717-2.096,2.146
		c-0.57,0.429-1.298,0.645-2.178,0.645c-0.973,0-1.802-0.272-2.486-0.805c-0.682-0.533-1.021-1.148-1.021-1.845
		c0-0.707,0.521-1.726,1.572-3.036l6.941-8.757l-6.152-7.296c-1.071-1.209-1.604-2.254-1.604-3.146c0-0.69,0.318-1.291,0.954-1.807
		c0.636-0.508,1.468-0.766,2.497-0.766c0.906,0,1.646,0.227,2.232,0.669c0.592,0.446,1.278,1.145,2.072,2.102l4.967,5.989
		l4.831-5.989c0.808-0.989,1.503-1.699,2.097-2.123c0.586-0.43,1.326-0.647,2.2-0.647c1.013,0,1.852,0.253,2.515,0.756
		c0.666,0.504,0.999,1.105,0.999,1.816c0,0.517-0.136,1.004-0.407,1.47c-0.271,0.473-0.688,1.031-1.255,1.677l-6.148,7.296
		l6.94,8.757c1.086,1.367,1.625,2.396,1.625,3.086c0,0.712-0.338,1.321-1.007,1.836c-0.675,0.507-1.509,0.764-2.502,0.764
		c-0.884,0-1.622-0.223-2.228-0.667C32.091,37.614,31.39,36.907,30.605,35.938z"/>
</g>
</svg>
