<?xml version="1.0" encoding="utf-8"?>
<!-- Generator: Adobe Illustrator 16.0.0, SVG Export Plug-In . SVG Version: 6.00 Build 0)  -->
<!DOCTYPE svg PUBLIC "-//W3C//DTD SVG 1.1//EN" "http://www.w3.org/Graphics/SVG/1.1/DTD/svg11.dtd">
<svg version="1.1" id="Layer_1" xmlns="http://www.w3.org/2000/svg" xmlns:xlink="http://www.w3.org/1999/xlink" x="0px" y="0px"
	 width="50px" height="50px" viewBox="0 0 50 50" enable-background="new 0 0 50 50" xml:space="preserve">
<path fill-rule="evenodd" clip-rule="evenodd" fill="currentColor" d="M7.46,9.732C7.357,8.624,7.801,7.77,8.641,7.075
	c1.921-1.59,4.077-2.732,6.468-3.429c1.743-0.508,3.19,0.216,3.826,1.904c0.984,2.614,1.949,5.235,2.936,7.849
	c0.449,1.189,0.288,2.258-0.52,3.245c-0.655,0.802-1.312,1.607-1.913,2.449c-0.156,0.219-0.24,0.634-0.143,0.87
	c1.829,4.42,4.477,8.3,7.851,11.683c0.186,0.187,0.607,0.286,0.87,0.223c1.052-0.256,2.084-0.592,3.124-0.898
	c1.137-0.335,2.141-0.1,3.014,0.701c2.097,1.922,4.204,3.833,6.288,5.769c1.278,1.187,1.405,2.771,0.345,4.147
	c-1.582,2.056-3.54,3.672-5.835,4.878c-0.948,0.498-1.9,0.46-2.837-0.035c-9.451-5-16.409-12.356-20.831-22.093
	C9.172,19.691,7.917,14.813,7.46,9.732z M8.974,9.488C9.016,9.516,9.059,9.543,9.102,9.57c0.008,0.096,0.014,0.191,0.023,0.288
	c0.657,6.366,2.525,12.347,5.738,17.891c4.305,7.431,10.302,13.104,17.869,17.136c0.524,0.279,1.029,0.333,1.579,0.036
	c2-1.083,3.706-2.514,5.113-4.296c0.589-0.746,0.523-1.38-0.187-2.032c-2.023-1.859-4.063-3.702-6.074-5.575
	c-0.544-0.508-1.095-0.602-1.784-0.382c-1.17,0.374-2.363,0.673-3.532,1.052c-0.552,0.179-0.955,0.083-1.368-0.318
	c-3.949-3.833-6.944-8.305-9.029-13.394c-0.204-0.498-0.172-0.909,0.179-1.336c0.826-1.007,1.613-2.044,2.435-3.054
	c0.389-0.479,0.47-0.98,0.257-1.551c-0.986-2.642-1.961-5.287-2.956-7.925c-0.31-0.821-0.885-1.114-1.722-0.877
	c-2.211,0.626-4.211,1.669-5.956,3.163C9.37,8.668,9.207,9.119,8.974,9.488z"/>
</svg>
