<?xml version="1.0" encoding="utf-8"?>
<!-- Generator: Adobe Illustrator 16.0.0, SVG Export Plug-In . SVG Version: 6.00 Build 0)  -->
<!DOCTYPE svg PUBLIC "-//W3C//DTD SVG 1.1//EN" "http://www.w3.org/Graphics/SVG/1.1/DTD/svg11.dtd">
<svg version="1.1" id="Layer_1" xmlns="http://www.w3.org/2000/svg" xmlns:xlink="http://www.w3.org/1999/xlink" x="0px" y="0px"
	 width="50px" height="50px" viewBox="0 0 50 50" enable-background="new 0 0 50 50" xml:space="preserve">
<g>
	<path fill-rule="evenodd" clip-rule="evenodd" fill="#FFFFFF" d="M45.479,11.378v-0.774c0-1.602-0.801-2.387-2.42-2.387H6.937
		c-1.612,0-2.413,0.785-2.413,2.387v0.779c0.003,7.325,0.021,14.649-0.018,21.969v1.021c0,0.025,0,0.057,0,0.085
		c0.073,1.309,0.882,2.071,1.974,2.231c0.112,0.012,0.233,0.022,0.355,0.022h6.504c1.083,0,1.36,0.269,1.36,1.332
		c0,1.38-0.007,2.747,0,4.122c0,0.229,0.018,0.467,0.063,0.689c0.156,0.795,0.854,1.143,1.575,0.792
		c0.211-0.104,0.396-0.244,0.572-0.394c2.148-1.813,4.299-3.629,6.439-5.453c0.502-0.431,1.056-0.738,1.651-0.913
		c0.409-0.126,0.837-0.184,1.299-0.184c0.25,0,0.508,0,0.763,0c2.453,0.008,4.919,0,7.374-0.003c1.81,0,3.609,0.003,5.414,0.011
		h3.317c0.126,0,0.243-0.011,0.354-0.022c1.1-0.164,1.911-0.938,1.974-2.268v-0.655C45.455,26.301,45.475,18.841,45.479,11.378z
		 M43.164,35.596c-0.025,0.002-0.048,0.002-0.07,0.002h-0.05c-2.154,0-4.3-0.002-6.45,0c-3.449,0-6.892,0-10.334-0.002
		c-0.438,0-0.858,0.045-1.26,0.142c-0.74,0.162-1.428,0.486-2.061,0.967c-0.088,0.069-0.18,0.139-0.267,0.22
		c-2.144,1.822-4.294,3.636-6.441,5.447c-0.096,0.082-0.185,0.25-0.317,0.198c-0.175-0.056-0.093-0.251-0.093-0.389
		c-0.013-1.392-0.003-2.786-0.003-4.17c0-0.524-0.082-0.954-0.252-1.31c-0.351-0.732-1.064-1.1-2.16-1.104H6.958
		c-0.039,0-0.083,0-0.121-0.002c-0.024,0-0.043,0-0.063,0c-0.884-0.034-1.146-0.356-1.146-1.326V10.632
		c0-1.012,0.291-1.309,1.291-1.309h0.614c5.686,0,11.377,0,17.066,0c0.267,0,0.535,0,0.802,0c5.69,0,11.379,0,17.065,0h0.004h0.611
		c0.997,0,1.291,0.297,1.291,1.309c0.004,7.879,0.004,15.758,0,23.638c0,0.97-0.264,1.292-1.142,1.326
		C43.213,35.596,43.189,35.598,43.164,35.596z"/>
	<path fill-rule="evenodd" clip-rule="evenodd" fill="#FFFFFF" d="M37.754,17.044c0,0.294-0.175,0.494-0.479,0.538
		c-0.145,0.024-0.296,0.007-0.445,0.007H13.246c-0.163,0-0.334,0.018-0.492-0.012c-0.301-0.05-0.474-0.239-0.474-0.546
		c-0.002-0.282,0.163-0.466,0.431-0.522c0.16-0.034,0.333-0.025,0.501-0.025h23.677c0.131,0,0.268-0.018,0.398,0.006
		C37.586,16.545,37.759,16.745,37.754,17.044z"/>
	<path fill-rule="evenodd" clip-rule="evenodd" fill="#FFFFFF" d="M37.754,22.13c-0.006,0.263-0.155,0.474-0.448,0.503
		c-0.181,0.023-0.364,0.02-0.545,0.02c-3.905,0.004-7.815,0.004-11.715,0.004h-11.82c-0.143,0-0.296,0.008-0.439-0.007
		c-0.303-0.039-0.489-0.221-0.506-0.52c-0.019-0.311,0.163-0.491,0.458-0.561c0.122-0.033,0.264-0.022,0.394-0.022
		c7.941,0,15.888,0,23.828,0c0.132,0,0.273-0.013,0.395,0.029C37.626,21.649,37.773,21.859,37.754,22.13z"/>
	<path fill-rule="evenodd" clip-rule="evenodd" fill="#FFFFFF" d="M37.737,27.192c-0.011,0.265-0.162,0.476-0.45,0.507
		c-0.186,0.02-0.369,0.02-0.548,0.02c-3.903,0-7.812,0-11.715,0H13.207c-0.146,0-0.297,0.011-0.444-0.009
		c-0.304-0.035-0.484-0.217-0.501-0.518c-0.022-0.312,0.163-0.49,0.453-0.565c0.128-0.025,0.268-0.021,0.398-0.021
		c7.941,0,15.883,0,23.828,0c0.131,0,0.268-0.007,0.391,0.03C37.607,26.714,37.751,26.923,37.737,27.192z"/>
</g>
</svg>
