<?xml version="1.0" encoding="utf-8"?>
<!-- Generator: Adobe Illustrator 16.0.0, SVG Export Plug-In . SVG Version: 6.00 Build 0)  -->
<!DOCTYPE svg PUBLIC "-//W3C//DTD SVG 1.1//EN" "http://www.w3.org/Graphics/SVG/1.1/DTD/svg11.dtd">
<svg version="1.1" id="Layer_1" xmlns="http://www.w3.org/2000/svg" xmlns:xlink="http://www.w3.org/1999/xlink" x="0px" y="0px"
	 width="50px" height="50px" viewBox="0 0 50 50" enable-background="new 0 0 50 50" xml:space="preserve">
<g>
	<g>
		<path fill-rule="evenodd" clip-rule="evenodd" fill="currentColor" d="M24.71,13.092c6.059,0.136,10.898,2.399,15.354,5.664
			c2.162,1.588,4.139,3.388,5.936,5.383c0.476,0.528,0.661,1.007,0.111,1.603c-4.564,4.945-9.771,8.91-16.424,10.575
			c-5.923,1.491-11.371,0.034-16.51-2.95c-3.338-1.939-6.27-4.391-8.891-7.223C3.32,25.1,3.305,24.911,4.253,23.904
			c4.539-4.812,9.697-8.647,16.254-10.266C22.017,13.265,23.558,13.092,24.71,13.092z M25.049,14.868
			c-0.577,0-1.161-0.043-1.732,0.016c-0.646,0.052-1.287,0.172-1.924,0.317c-6.201,1.371-11.05,4.97-15.436,9.352
			c-0.404,0.404-0.266,0.627,0.063,0.96c3.038,3.083,6.411,5.72,10.346,7.589c4.113,1.939,8.356,2.702,12.847,1.568
			c5.918-1.485,10.593-4.966,14.824-9.179c0.525-0.521,0.201-0.769-0.142-1.121c-2.638-2.662-5.528-4.978-8.833-6.766
			C31.937,15.915,28.645,14.818,25.049,14.868z"/>
		<path fill-rule="evenodd" clip-rule="evenodd" fill="currentColor" d="M34.147,24.954c-0.034,2.594-1.134,4.664-3.138,6.254
			c-3.326,2.641-8.153,2.746-11.618,0.297c-4.639-3.273-4.726-9.574-0.18-12.978c4.142-3.101,10.368-2.27,13.379,1.788
			C33.635,21.708,34.138,23.231,34.147,24.954z M24.976,27.635c1.605,0.01,2.964-1.195,2.995-2.649
			c0.031-1.482-1.387-2.773-3.023-2.752c-1.597,0.021-2.952,1.275-2.943,2.718C22.014,26.405,23.363,27.632,24.976,27.635z"/>
	</g>
</g>
</svg>
