<?xml version="1.0" encoding="utf-8"?>
<!-- Generator: Adobe Illustrator 16.0.0, SVG Export Plug-In . SVG Version: 6.00 Build 0)  -->
<!DOCTYPE svg PUBLIC "-//W3C//DTD SVG 1.1//EN" "http://www.w3.org/Graphics/SVG/1.1/DTD/svg11.dtd">
<svg version="1.1" id="Layer_1" xmlns="http://www.w3.org/2000/svg" xmlns:xlink="http://www.w3.org/1999/xlink" x="0px" y="0px"
	 width="50px" height="50px" viewBox="0 0 50 50" enable-background="new 0 0 50 50" xml:space="preserve">
<path fill-rule="evenodd" clip-rule="evenodd" fill="#D3D3D3" d="M14.274,33.329c0.149-0.559,0.335-1.11,0.442-1.677
	c0.633-3.33,2.903-4.774,6.017-5.233c2.421-0.355,4.87-0.331,7.306-0.474c0.943-0.056,1.887-0.129,2.823-0.241
	c2.243-0.269,3.664-1.489,4.183-3.708c0.125-0.536,0.208-1.081,0.318-1.62c0.185-0.902,0.077-1.505-0.931-2.015
	c-1.963-0.995-2.758-3.394-2.067-5.494c0.663-2.014,2.737-3.398,4.84-3.229c2.145,0.174,4.037,1.94,4.332,4.043
	c0.307,2.188-0.896,4.396-2.975,5.079c-0.951,0.313-1.33,0.738-1.312,1.707c0.013,0.58-0.144,1.171-0.276,1.745
	c-0.851,3.681-3.061,5.378-7.266,5.61c-2.752,0.152-5.509,0.251-8.255,0.483c-3.1,0.264-4.229,1.29-4.967,4.249
	c-0.096,0.382-0.144,0.777-0.271,1.147c-0.428,1.236-0.421,2.18,0.663,3.3c1.877,1.94,1.239,5.298-1.003,6.821
	c-2.296,1.56-5.494,0.779-6.829-1.664c-1.312-2.404-0.321-5.515,2.227-6.539c0.86-0.348,0.962-0.787,0.958-1.553
	c-0.021-6.066-0.023-12.134,0.004-18.201c0.004-0.742-0.126-1.151-0.913-1.46c-2.084-0.816-3.241-3.058-2.822-5.162
	c0.454-2.275,2.41-3.89,4.699-3.876c2.239,0.014,4.143,1.59,4.622,3.827c0.455,2.131-0.752,4.375-2.864,5.263
	c-0.479,0.201-0.866,0.3-0.861,1.004c0.036,5.948,0.021,11.896,0.021,17.846C14.17,33.315,14.223,33.322,14.274,33.329z
	 M13.217,7.265c-1.549-0.002-2.869,1.322-2.852,2.86c0.017,1.497,1.283,2.775,2.784,2.811c1.569,0.035,2.864-1.226,2.879-2.803
	C16.043,8.546,14.79,7.268,13.217,7.265z M36.833,17.191c1.573,0.016,2.845-1.252,2.844-2.836c-0.001-1.54-1.202-2.787-2.729-2.833
	c-1.548-0.046-2.896,1.229-2.934,2.776C33.977,15.834,35.285,17.177,36.833,17.191z M16.028,39.898
	c0.001-1.586-1.268-2.852-2.844-2.836c-1.503,0.016-2.781,1.272-2.819,2.773c-0.039,1.535,1.268,2.879,2.816,2.896
	C14.755,42.75,16.028,41.482,16.028,39.898z"/>
</svg>
