<?xml version="1.0" encoding="utf-8"?>
<!-- Generator: Adobe Illustrator 16.0.0, SVG Export Plug-In . SVG Version: 6.00 Build 0)  -->
<!DOCTYPE svg PUBLIC "-//W3C//DTD SVG 1.1//EN" "http://www.w3.org/Graphics/SVG/1.1/DTD/svg11.dtd">
<svg version="1.1" id="Layer_1" xmlns="http://www.w3.org/2000/svg" xmlns:xlink="http://www.w3.org/1999/xlink" x="0px" y="0px"
	 width="50px" height="50px" viewBox="0 0 50 50" enable-background="new 0 0 50 50" xml:space="preserve">
<g>
	<g>
		<path fill="currentColor" d="M28.279,17.521c2.013,0.545,4.022,1.088,6.034,1.634c0.798,0.213,1.137-0.997,0.34-1.212
			c-2.01-0.545-4.021-1.089-6.034-1.634C27.822,16.095,27.484,17.305,28.279,17.521L28.279,17.521z"/>
	</g>
	<g>
		<path fill="currentColor" d="M26.07,23.264c2.009,0.545,4.02,1.089,6.03,1.632c0.8,0.217,1.139-0.995,0.344-1.21
			c-2.013-0.545-4.023-1.089-6.034-1.634C25.611,21.837,25.271,23.049,26.07,23.264L26.07,23.264z"/>
	</g>
	<g>
		<path fill="currentColor" d="M23.636,28.67c2.01,0.543,4.021,1.085,6.031,1.632c0.8,0.215,1.138-0.995,0.342-1.214
			c-2.011-0.543-4.024-1.087-6.032-1.632C23.178,27.243,22.838,28.453,23.636,28.67L23.636,28.67z"/>
	</g>
	<path fill-rule="evenodd" clip-rule="evenodd" fill="currentColor" d="M25.173,15.869c0,0.015,0,0.032-0.003,0.049
		c-0.01,0.156-0.069,0.301-0.162,0.418c-0.006,0.006-0.012,0.008-0.015,0.014c-0.05,0.053-0.104,0.101-0.166,0.148
		c-0.002,0.003-0.006,0.005-0.008,0.005c-0.121,0.082-0.268,0.126-0.425,0.126c-0.413,0-0.749-0.313-0.775-0.711
		c-0.002-0.017-0.002-0.032-0.002-0.049c0-0.025,0.002-0.052,0.002-0.076c0.008-0.072,0.026-0.145,0.053-0.207
		c0-0.006,0.004-0.01,0.006-0.014c0.118-0.273,0.395-0.465,0.717-0.465C24.821,15.107,25.173,15.447,25.173,15.869z"/>
	<path fill-rule="evenodd" clip-rule="evenodd" fill="currentColor" d="M23.055,21.344v0.019c-0.006,0.302-0.192,0.563-0.461,0.675
		c-0.002,0.004-0.01,0.007-0.014,0.007c-0.092,0.042-0.192,0.063-0.301,0.063c-0.434,0-0.78-0.341-0.78-0.764
		c0-0.056,0.007-0.114,0.021-0.166c0-0.002,0-0.002,0-0.002c0.004-0.021,0.008-0.039,0.017-0.053v-0.002
		c0.097-0.312,0.391-0.535,0.743-0.535C22.707,20.586,23.055,20.924,23.055,21.344z"/>
	<path fill-rule="evenodd" clip-rule="evenodd" fill="currentColor" d="M20.867,26.441c0,0.02,0,0.046-0.001,0.07
		c-0.005,0.027-0.005,0.056-0.009,0.084c-0.002,0.016-0.004,0.03-0.011,0.048c-0.007,0.034-0.018,0.068-0.031,0.099
		c-0.014,0.032-0.026,0.061-0.042,0.093c-0.013,0.016-0.021,0.036-0.036,0.054c-0.034,0.053-0.075,0.095-0.124,0.135
		c-0.027,0.021-0.059,0.045-0.086,0.068c-0.003,0.004-0.005,0.006-0.012,0.006c-0.027,0.021-0.058,0.037-0.09,0.051
		c-0.101,0.048-0.211,0.076-0.334,0.076c-0.417,0-0.76-0.321-0.774-0.729c-0.003-0.012-0.003-0.024-0.003-0.034
		c0-0.002,0-0.002,0-0.002c0-0.106,0.021-0.211,0.068-0.299c0.116-0.271,0.392-0.457,0.709-0.457c0.393,0,0.722,0.285,0.77,0.659
		c0.005,0.007,0.005,0.015,0.005,0.021C20.867,26.402,20.867,26.423,20.867,26.441z"/>
	<path fill="currentColor" d="M42.271,12.362c-0.048-0.181-0.189-0.329-0.438-0.384c-6.506-1.371-13.014-2.741-19.518-4.112
		c-0.063-0.008-0.132-0.02-0.197-0.03c-0.012-0.002-0.028-0.004-0.041-0.014c-0.002,0-0.002,0-0.002,0
		c-0.33-0.036-0.597,0.141-0.71,0.45l-4.927,13.345c-0.008,0.022-0.018,0.047-0.027,0.07c-0.133,0.387-0.277,0.768-0.422,1.154
		c-0.707,1.907-1.413,3.818-2.117,5.729c-0.001,0.008-0.006,0.017-0.01,0.022L9,26.742c-0.004-0.008-0.006-0.012-0.01-0.02
		c-0.078-0.026-0.159-0.057-0.243-0.079c-0.021-0.008-0.042-0.01-0.062-0.014c-0.069-0.014-0.138-0.024-0.214-0.022
		c-0.243,0.053-0.4,0.205-0.513,0.418c-0.021,0.07-0.04,0.144-0.063,0.214c-0.006,0.025-0.013,0.048-0.021,0.074
		c-0.03,0.12-0.055,0.243-0.081,0.361c-0.004,0.059-0.008,0.112-0.009,0.171c-0.068,1.256-0.198,2.545,0.059,3.782
		c0.025,0.119,0.053,0.237,0.081,0.356c0.008,0.034,0.017,0.068,0.026,0.103c0.059,0.185,0.125,0.367,0.205,0.54
		c0.742,1.677,2.429,2.836,4.05,3.63c1.005,0.494,2.016,0.987,3.032,1.469c2.154,1.021,4.336,1.994,6.566,2.832
		c1.309,0.492,3.252,1.261,5.117,1.529c0.269,0.036,0.533,0.064,0.797,0.081c0.015,0.002,0.026,0.002,0.037,0.002
		c0.484,0.027,0.958,0.01,1.404-0.064c0.858-0.145,1.624-0.505,2.199-1.184c2.016-2.38,3.103-5.706,4.228-8.548
		c0.63-1.592,1.237-3.2,1.825-4.81c0.006-0.014,0.006-0.028,0.013-0.038c0.042-0.116,0.084-0.235,0.128-0.354
		c0.007-0.024,0.013-0.051,0.026-0.072c0.001-0.009,0.004-0.011,0.007-0.021c0.06-0.158,0.114-0.319,0.172-0.479
		c0.147-0.401,0.288-0.808,0.433-1.212c0.032-0.101,0.069-0.203,0.106-0.306c1.427-4.079,2.735-8.203,3.984-12.334
		C42.324,12.605,42.316,12.477,42.271,12.362z M21.057,38.928c-2.381-0.94-4.637-2.13-6.958-3.188
		c-0.167-0.078-0.334-0.152-0.504-0.229c-1.276-0.567-2.543-1.225-3.47-2.245c-0.215-0.237-0.413-0.499-0.59-0.778
		c-0.678-1.087-0.559-2.335-0.511-3.553c0.01-0.277,0.021-0.553,0.036-0.834c1.668,0.639,3.338,1.275,5.008,1.915
		c0.019,0.006,0.037,0.012,0.055,0.014c0.02,0.015,0.036,0.021,0.057,0.028c2.888,1.18,5.784,2.354,8.673,3.533
		c0,0,0.003,0,0.005,0.002c0.004,0,0.006,0.004,0.012,0.004c0.015,0.004,0.039,0.012,0.064,0.028c0.002,0,0.006,0.002,0.008,0.006
		c0.104,0.059,0.261,0.199,0.296,0.537c0.03,0.321,0.07,0.741,0.116,1.089c0.013,0.093,0.023,0.181,0.037,0.262
		c0.015,0.086,0.027,0.16,0.04,0.221c0,0.004,0.003,0.004,0.003,0.008c0.338,1.673,1.002,3.311,1.996,4.689
		C23.93,40.06,22.453,39.479,21.057,38.928z M39.133,18.526c-1.261,3.901-2.604,7.774-4.05,11.61
		c-0.701,1.867-1.4,3.811-2.249,5.676c0,0.004-0.001,0.008-0.002,0.014c-0.613,1.345-1.298,2.649-2.118,3.852
		c-0.011,0.012-0.021,0.023-0.03,0.04c-0.001,0.006-0.004,0.008-0.01,0.014c-0.564,0.796-1.234,1.067-2.099,1.107
		c-1.077-0.139-2.224-1.366-2.363-1.52c-0.005-0.006-0.008-0.01-0.012-0.012c-0.002-0.004-0.005-0.006-0.005-0.006
		c-0.02-0.03-0.039-0.059-0.057-0.089c-0.128-0.145-0.236-0.297-0.335-0.462c-0.093-0.106-0.163-0.229-0.218-0.362
		c-0.244-0.407-0.413-0.848-0.518-1.308c-0.08-0.228-0.133-0.458-0.167-0.693c-0.289-1.013-0.436-2.063-0.456-3.085
		c-0.004-0.306-0.195-0.49-0.469-0.604l-7.253-2.954c-0.054-0.022-0.114-0.046-0.173-0.068c-0.197-0.08-0.392-0.159-0.589-0.241
		c-0.036-0.012-0.07-0.028-0.105-0.04c-0.054-0.024-0.107-0.044-0.166-0.066c-0.012-0.006-0.02-0.01-0.034-0.019
		c-0.205-0.08-0.406-0.162-0.608-0.247c2.45-6.634,4.897-13.265,7.349-19.895c2.433,0.511,4.869,1.022,7.303,1.535
		c3.715,0.784,7.43,1.567,11.149,2.35C40.296,14.881,39.724,16.703,39.133,18.526z"/>
</g>
</svg>
