<?xml version="1.0" encoding="utf-8"?>
<!-- Generator: Adobe Illustrator 16.0.0, SVG Export Plug-In . SVG Version: 6.00 Build 0)  -->
<!DOCTYPE svg PUBLIC "-//W3C//DTD SVG 1.1//EN" "http://www.w3.org/Graphics/SVG/1.1/DTD/svg11.dtd">
<svg version="1.1" id="Layer_1" xmlns="http://www.w3.org/2000/svg" xmlns:xlink="http://www.w3.org/1999/xlink" x="0px" y="0px"
	 width="50px" height="50px" viewBox="0 0 50 50" enable-background="new 0 0 50 50" xml:space="preserve">
<path fill-rule="evenodd" clip-rule="evenodd" fill="currentColor" d="M22.631,8.054c0.122-0.12,0.25-0.232,0.37-0.343
	c0.116-0.079,0.235-0.163,0.354-0.245c0.112-0.062,0.236-0.116,0.35-0.179c0.217-0.068,0.43-0.138,0.645-0.208
	c0.198-0.023,0.396-0.044,0.599-0.068c0.263,0.024,0.517,0.055,0.775,0.085c0.034,0,0.06,0.007,0.087,0.013
	c0.032,0.011,0.062,0.019,0.094,0.03c0.107,0.037,0.22,0.08,0.33,0.116c0.465,0.202,0.85,0.504,1.204,0.865
	c4.793,4.791,9.587,9.584,14.385,14.38c0.358,0.356,0.687,0.733,0.902,1.201c0.054,0.153,0.104,0.309,0.162,0.467
	c0.11,0.469,0.126,0.941,0.063,1.42c-0.065,0.222-0.133,0.439-0.198,0.655c-0.211,0.487-0.541,0.888-0.917,1.257
	c-0.013,0.02-0.025,0.031-0.041,0.044c-0.199,0.202-0.406,0.403-0.604,0.607c-0.018,0.013-0.032,0.025-0.041,0.045
	c-0.204,0.2-0.407,0.399-0.608,0.6c-0.018,0.021-0.03,0.036-0.044,0.054c-0.2,0.196-0.401,0.398-0.604,0.604
	c-0.017,0.008-0.034,0.028-0.043,0.041c-0.207,0.201-0.406,0.405-0.611,0.604c-0.013,0.012-0.028,0.031-0.045,0.047
	c-0.196,0.201-0.397,0.403-0.6,0.604c-0.016,0.016-0.033,0.027-0.051,0.044c-0.199,0.203-0.404,0.406-0.604,0.604
	c-0.013,0.021-0.021,0.033-0.041,0.044c-0.206,0.202-0.401,0.405-0.604,0.609c-0.019,0.015-0.032,0.028-0.041,0.045
	c-0.204,0.204-0.406,0.404-0.611,0.604c-0.014,0.015-0.029,0.03-0.041,0.04c-0.202,0.204-0.401,0.406-0.604,0.61
	c-0.02,0.01-0.035,0.028-0.043,0.041c-0.205,0.202-0.411,0.403-0.611,0.603c-0.014,0.021-0.032,0.035-0.046,0.046
	c-0.204,0.205-0.407,0.406-0.606,0.61c-0.007,0.015-0.025,0.022-0.041,0.041c-0.2,0.202-0.406,0.403-0.609,0.605
	c-0.01,0.015-0.021,0.03-0.041,0.041c-0.204,0.204-0.401,0.405-0.607,0.61c-0.014,0.016-0.027,0.025-0.037,0.042
	c-0.203,0.201-0.409,0.402-0.608,0.603c-0.019,0.021-0.027,0.033-0.042,0.047c-0.207,0.203-0.404,0.408-0.604,0.607
	c-0.02,0.012-0.034,0.027-0.048,0.047c-0.201,0.202-0.406,0.401-0.608,0.601c-0.013,0.019-0.023,0.032-0.044,0.047
	c-0.204,0.201-0.401,0.407-0.604,0.607c-0.01,0.013-0.03,0.024-0.043,0.041c-0.203,0.205-0.409,0.403-0.609,0.604
	c-0.013,0.021-0.021,0.032-0.041,0.042c-0.205,0.203-0.402,0.405-0.606,0.61c-0.02,0.015-0.03,0.024-0.044,0.044
	c-0.199,0.206-0.404,0.4-0.606,0.601c-0.015,0.016-0.025,0.035-0.041,0.045c-0.204,0.204-0.401,0.409-0.606,0.611
	c-0.014,0.012-0.032,0.025-0.044,0.04c-0.201,0.198-0.408,0.403-0.608,0.607c-0.013,0.011-0.023,0.028-0.045,0.045
	c-0.363,0.37-0.768,0.701-1.257,0.905c-0.22,0.071-0.435,0.138-0.649,0.206c-0.491,0.07-0.98,0.043-1.471-0.071
	c-0.143-0.051-0.277-0.107-0.42-0.156c-0.462-0.216-0.842-0.539-1.204-0.9c-4.786-4.801-9.584-9.594-14.382-14.384
	c-0.351-0.359-0.657-0.747-0.859-1.203c-0.039-0.114-0.08-0.226-0.117-0.337c-0.012-0.028-0.024-0.06-0.03-0.089
	c-0.003-0.032-0.01-0.055-0.016-0.084c-0.046-0.258-0.074-0.52-0.083-0.782c0.026-0.194,0.051-0.394,0.072-0.595
	c0.076-0.231,0.154-0.47,0.232-0.704c0.033-0.065,0.066-0.132,0.098-0.2c0.1-0.146,0.2-0.3,0.3-0.447
	c0.115-0.127,0.231-0.252,0.349-0.378c0.105-0.078,0.192-0.164,0.264-0.27c0.146-0.115,0.271-0.24,0.387-0.378
	c0.101-0.075,0.19-0.169,0.267-0.272c0.137-0.11,0.268-0.238,0.384-0.379c0.104-0.08,0.189-0.165,0.266-0.268
	c0.14-0.117,0.268-0.243,0.383-0.384c0.101-0.073,0.193-0.164,0.268-0.269c0.139-0.109,0.261-0.235,0.371-0.37
	c0.107-0.085,0.201-0.173,0.279-0.278c0.138-0.115,0.269-0.238,0.38-0.38c0.102-0.076,0.19-0.166,0.271-0.27
	c0.138-0.117,0.266-0.246,0.379-0.383c0.104-0.077,0.193-0.165,0.268-0.269c0.144-0.115,0.268-0.237,0.382-0.376
	c0.104-0.077,0.189-0.173,0.271-0.272c0.135-0.111,0.263-0.239,0.378-0.383c0.106-0.077,0.192-0.164,0.27-0.265
	c0.14-0.118,0.269-0.245,0.38-0.385c0.106-0.073,0.191-0.161,0.271-0.265c0.137-0.117,0.263-0.245,0.381-0.384
	c0.102-0.076,0.191-0.166,0.27-0.269c0.14-0.111,0.268-0.237,0.379-0.382c0.102-0.075,0.192-0.164,0.269-0.266
	c0.138-0.116,0.259-0.233,0.378-0.375c0.092-0.096,0.186-0.19,0.283-0.284c0.131-0.111,0.256-0.229,0.36-0.363
	c0.096-0.097,0.191-0.188,0.284-0.288c0.138-0.109,0.256-0.225,0.363-0.36c0.097-0.095,0.193-0.197,0.289-0.285
	c0.135-0.107,0.255-0.229,0.364-0.362c0.093-0.103,0.192-0.194,0.284-0.294c0.137-0.107,0.256-0.225,0.369-0.359
	C18.714,12,18.714,12,18.973,12.267c0.044,0.038,0.087,0.073,0.129,0.109c0.078,0.076,0.149,0.151,0.228,0.223
	c0.144,0.148,0.282,0.289,0.424,0.429c0.074,0.074,0.146,0.153,0.22,0.223c0.143,0.144,0.287,0.285,0.429,0.428
	c0.075,0.076,0.147,0.147,0.224,0.224c0.141,0.138,0.28,0.282,0.426,0.424c0.074,0.075,0.149,0.146,0.222,0.226
	c0.144,0.144,0.288,0.283,0.43,0.428c0.075,0.078,0.151,0.148,0.223,0.223c0.128,0.133,0.256,0.256,0.385,0.389
	c-0.005,0.028-0.01,0.06-0.013,0.084c-0.062,0.063-0.094,0.136-0.116,0.22c-0.023,0.04-0.052,0.078-0.048,0.126
	c-0.032,0.023-0.039,0.059-0.034,0.091c-0.063,0.118-0.103,0.245-0.122,0.378c-0.074,0.305-0.117,0.612-0.072,0.928
	c0.009,0.066,0.014,0.137,0.021,0.211c0.071,0.582,0.297,1.093,0.678,1.541c0.101,0.137,0.218,0.258,0.353,0.364
	c0.096,0.108,0.218,0.192,0.35,0.258c0.074,0.067,0.154,0.121,0.257,0.145c0.149,0.108,0.319,0.17,0.493,0.211
	c0.128,0.031,0.172,0.093,0.172,0.237c-0.007,0.931,0,1.867,0,2.803c0,2.202,0,4.41,0,6.615c-0.475,0.143-0.91,0.344-1.271,0.683
	c-0.096,0.082-0.202,0.147-0.262,0.266c-0.354,0.364-0.588,0.792-0.701,1.293c-0.104,0.343-0.139,0.692-0.088,1.05
	c0.006,0.07,0.014,0.146,0.021,0.213c0.08,0.562,0.305,1.066,0.678,1.498c0.101,0.141,0.209,0.271,0.353,0.361
	c0.076,0.109,0.191,0.17,0.298,0.239c0.084,0.063,0.165,0.134,0.272,0.163c0.235,0.147,0.492,0.248,0.77,0.292
	c0.022,0.021,0.041,0.027,0.066,0.009l0.011,0.012c0.188,0.05,0.385,0.084,0.576,0.064c0.237,0.01,0.474,0.007,0.699-0.067
	c0.174-0.023,0.351-0.076,0.516-0.156c0.252-0.086,0.489-0.204,0.689-0.383c0.015-0.011,0.03-0.022,0.046-0.034
	c0.247-0.158,0.442-0.371,0.605-0.612c0.028-0.009,0.048-0.034,0.048-0.063c0.13-0.156,0.234-0.338,0.3-0.534
	c0.121-0.216,0.196-0.453,0.217-0.702c0.056-0.24,0.094-0.489,0.049-0.738c0.013-0.174-0.02-0.347-0.064-0.521
	c-0.058-0.29-0.162-0.564-0.318-0.82c-0.032-0.088-0.074-0.16-0.143-0.214c-0.062-0.135-0.153-0.254-0.264-0.346
	c-0.089-0.126-0.191-0.229-0.319-0.313c-0.289-0.265-0.633-0.45-1.011-0.562c-0.164-0.044-0.215-0.115-0.215-0.295
	c0.004-2.578,0.002-5.158,0.002-7.735c0-0.545-0.002-1.083-0.002-1.628c0.165-0.083,0.355-0.101,0.515-0.208
	c0.222-0.164,0.401-0.11,0.543,0.11c0.012,0.018,0.032,0.03,0.053,0.044c0.075,0.082,0.158,0.159,0.236,0.239
	c0.142,0.133,0.274,0.271,0.413,0.408c0.08,0.079,0.159,0.163,0.239,0.24c0.138,0.134,0.274,0.274,0.408,0.408
	c0.067,0.093,0.15,0.175,0.242,0.238c0.138,0.139,0.269,0.276,0.403,0.414c0.09,0.075,0.164,0.162,0.246,0.236
	c0.134,0.142,0.271,0.273,0.409,0.412c0.08,0.08,0.16,0.159,0.242,0.239c0.116,0.115,0.231,0.232,0.351,0.351
	c0.043,0.052,0.057,0.104,0.018,0.164c-0.144,0.229-0.239,0.475-0.291,0.738c-0.063,0.223-0.111,0.453-0.092,0.689
	c-0.013,0.205-0.013,0.41,0.047,0.611c0.025,0.241,0.084,0.473,0.205,0.688c0.013,0.105,0.063,0.188,0.131,0.267
	c0.073,0.186,0.193,0.351,0.337,0.497c0.085,0.128,0.19,0.233,0.313,0.318c0.093,0.125,0.213,0.194,0.334,0.271
	c0.067,0.058,0.133,0.112,0.23,0.134c0.261,0.172,0.552,0.278,0.863,0.323c0.048,0.009,0.084,0.019,0.121,0.019
	c0.043,0.041,0.089,0.024,0.142,0.024c0.067,0.005,0.144,0.014,0.211,0.021c0.254,0.042,0.497,0.013,0.737-0.045
	c0.034-0.006,0.063-0.01,0.084-0.019c0.037-0.002,0.065-0.011,0.098-0.022c0.024-0.007,0.05-0.011,0.082-0.019
	c0.072-0.006,0.153-0.028,0.216-0.071c0.067,0.004,0.124-0.032,0.169-0.061c0.216-0.083,0.414-0.186,0.592-0.329
	c0.033,0,0.052-0.02,0.059-0.051c0.246-0.158,0.457-0.357,0.613-0.604c0.055-0.026,0.076-0.073,0.096-0.128
	c0.151-0.183,0.25-0.394,0.326-0.609c0.069-0.152,0.135-0.308,0.137-0.478c0.135-0.462,0.115-0.927-0.002-1.387
	c-0.042-0.277-0.142-0.53-0.287-0.77c-0.035-0.104-0.093-0.198-0.168-0.274c-0.064-0.106-0.129-0.222-0.236-0.295
	c-0.109-0.166-0.254-0.287-0.406-0.402c-0.438-0.353-0.933-0.556-1.48-0.635c-0.08-0.003-0.154-0.009-0.23-0.017
	c-0.328-0.048-0.647-0.006-0.963,0.085c-0.023,0.011-0.053,0.017-0.085,0.021c-0.024,0.008-0.058,0.02-0.085,0.031
	c-0.252,0.032-0.456,0.188-0.688,0.263c-0.147-0.138-0.294-0.286-0.438-0.426c-0.062-0.06-0.118-0.115-0.178-0.177
	c-0.16-0.157-0.314-0.317-0.471-0.472c-0.059-0.061-0.117-0.121-0.178-0.179c-0.158-0.157-0.313-0.315-0.47-0.473
	c-0.057-0.06-0.116-0.116-0.176-0.176c-0.163-0.153-0.319-0.317-0.477-0.469c-0.056-0.064-0.119-0.121-0.179-0.182
	c-0.174-0.171-0.339-0.344-0.515-0.515c-0.046-0.045-0.089-0.089-0.134-0.136c-0.194-0.182-0.4-0.357-0.17-0.648
	c0.03-0.056,0.082-0.107,0.063-0.185c0.044-0.048,0.064-0.104,0.064-0.165c0.051-0.072,0.048-0.165,0.073-0.247
	c0.073-0.228,0.078-0.468,0.071-0.702c0.011-0.222-0.009-0.436-0.064-0.646c-0.058-0.264-0.133-0.524-0.274-0.747
	c-0.042-0.116-0.097-0.224-0.186-0.31c-0.05-0.111-0.128-0.211-0.216-0.295c-0.118-0.156-0.256-0.287-0.416-0.393
	c-0.106-0.109-0.229-0.198-0.367-0.255c-0.081-0.064-0.164-0.126-0.266-0.145c-0.229-0.128-0.472-0.205-0.73-0.232
	c-0.211-0.065-0.431-0.079-0.649-0.051c-0.226-0.015-0.442,0.008-0.647,0.089c-0.237,0.022-0.448,0.112-0.654,0.216
	c-0.154,0.117-0.287,0.097-0.405-0.066c-0.076-0.104-0.19-0.187-0.286-0.278c-0.042-0.044-0.094-0.093-0.135-0.133
	c-0.163-0.16-0.313-0.316-0.47-0.47c-0.063-0.065-0.121-0.122-0.181-0.184c-0.172-0.173-0.344-0.342-0.518-0.514
	c-0.043-0.046-0.086-0.096-0.129-0.134c-0.157-0.161-0.318-0.316-0.473-0.477c-0.061-0.056-0.121-0.119-0.181-0.174
	c-0.155-0.16-0.311-0.315-0.472-0.473c-0.048-0.071-0.106-0.129-0.176-0.182c-0.059-0.054-0.117-0.121-0.176-0.182
	c-0.227-0.227-0.227-0.227-0.023-0.463c0.141-0.111,0.267-0.24,0.378-0.381c0.104-0.073,0.195-0.169,0.273-0.268
	c0.132-0.112,0.258-0.232,0.372-0.371c0.094-0.096,0.19-0.196,0.284-0.291c0.135-0.104,0.255-0.227,0.364-0.358
	c0.092-0.094,0.192-0.19,0.286-0.287c0.134-0.108,0.254-0.229,0.364-0.363C22.439,8.24,22.533,8.145,22.631,8.054z M34.209,20.514
	c0.142,0.054,0.289,0.102,0.439,0.152c0.226,0.121,0.463,0.249,0.691,0.371c0.004,0.016,0.018,0.021,0.03,0.016
	c0.191,0.144,0.38,0.289,0.571,0.43c0.087,0.088,0.177,0.172,0.266,0.26c0.122,0.151,0.25,0.294,0.378,0.438
	c0.042,0.055,0.078,0.114,0.117,0.17c0.196,0.299,0.356,0.621,0.509,0.952c0.05,0.16,0.105,0.319,0.156,0.479
	c0.016,0.096,0.041,0.194,0.063,0.284c0.004,0.022,0.006,0.045,0.014,0.063c0.005,0.054,0.017,0.116,0.027,0.17
	c0.014,0.306,0.027,0.619,0.046,0.933c-0.007,0.116-0.02,0.229-0.032,0.354c-0.041,0.224-0.083,0.441-0.124,0.661
	c-0.129,0.412-0.303,0.808-0.51,1.187c-0.088,0.134-0.184,0.271-0.277,0.408c-0.063,0.081-0.131,0.164-0.2,0.242
	c-0.161,0.169-0.331,0.326-0.486,0.492c-0.097,0.074-0.19,0.15-0.285,0.225c-0.123,0.082-0.245,0.166-0.374,0.248
	c-0.178,0.09-0.356,0.182-0.539,0.272c-0.202,0.072-0.404,0.146-0.603,0.216c-0.036,0-0.082-0.011-0.114,0.027
	c-0.22,0.037-0.444,0.074-0.668,0.113c-0.054,0.011-0.113,0.018-0.176,0.027c-0.126,0-0.256,0.002-0.384,0.005
	c-0.235-0.021-0.464-0.047-0.689-0.071c-0.188-0.04-0.372-0.081-0.559-0.123c-0.103-0.034-0.207-0.067-0.309-0.101
	c-0.097-0.038-0.177-0.071-0.262-0.108c-0.263-0.146-0.522-0.3-0.784-0.445c-0.024-0.023-0.059-0.041-0.082-0.065
	c-0.176-0.141-0.346-0.283-0.524-0.431c-0.05-0.058-0.108-0.112-0.169-0.169c-0.346-0.418-0.64-0.854-0.863-1.346
	c-0.02-0.041-0.034-0.092-0.055-0.13c-0.008-0.029-0.025-0.058-0.032-0.094c-0.035-0.092-0.067-0.195-0.099-0.296
	c-0.019-0.088-0.045-0.178-0.068-0.266c-0.005-0.04-0.016-0.083-0.018-0.125c-0.008-0.03-0.02-0.061-0.026-0.089
	c-0.009-0.08,0.002-0.163-0.041-0.234c-0.007-0.283-0.016-0.558-0.026-0.844c0.02-0.146,0.033-0.29,0.049-0.436
	c0.017-0.091,0.019-0.187,0.051-0.272c0.096-0.216,0.02-0.364-0.17-0.482c-0.137-0.171-0.29-0.319-0.458-0.467
	c-0.067-0.067-0.146-0.146-0.247-0.257c0,0.294,0,0.544,0,0.785c0,0.219,0,0.436,0,0.65c0,0.217,0,0.432,0,0.648s0,0.438,0,0.651
	c0,0.215,0,0.433,0,0.652c0,0.218,0,0.433,0,0.649c0,0.214,0,0.432,0,0.647c0,0.22,0,0.435,0,0.65c0,0.155-0.003,0.316-0.007,0.472
	c-0.002,0.067,0.009,0.124,0.08,0.162c0.28,0.148,0.518,0.359,0.761,0.556c0.035,0.039,0.074,0.071,0.104,0.105
	c0.183,0.209,0.358,0.416,0.534,0.62c0,0.02,0.007,0.025,0.021,0.035c0.245,0.355,0.428,0.732,0.593,1.132
	c0.014,0.089,0.039,0.176,0.083,0.255c0.034,0.155,0.066,0.314,0.103,0.475c0.025,0.24,0.051,0.488,0.08,0.733
	c-0.007,0.118-0.009,0.229-0.009,0.341c-0.044,0.32-0.087,0.641-0.161,0.957c0,0.054-0.057,0.088-0.021,0.144
	c-0.081,0.198-0.163,0.399-0.239,0.595c-0.075,0.152-0.157,0.305-0.23,0.449c-0.083,0.128-0.165,0.25-0.25,0.377
	c-0.089,0.084-0.16,0.178-0.227,0.28c-0.16,0.166-0.327,0.325-0.488,0.49c-0.094,0.072-0.183,0.15-0.278,0.227
	c-0.129,0.081-0.252,0.167-0.381,0.251c-0.378,0.211-0.773,0.376-1.178,0.509c-0.229,0.043-0.443,0.084-0.663,0.126
	c-0.126,0.015-0.252,0.022-0.383,0.034c-0.304-0.015-0.6-0.034-0.905-0.05c-0.051-0.007-0.101-0.01-0.152-0.014l-0.014-0.016
	c-0.163-0.038-0.323-0.073-0.488-0.111c-0.096-0.035-0.196-0.07-0.296-0.103c-0.35-0.148-0.681-0.324-1-0.53
	c-0.058-0.04-0.108-0.076-0.17-0.11c-0.144-0.127-0.291-0.259-0.433-0.378c-0.071-0.071-0.145-0.148-0.217-0.218
	c-0.159-0.204-0.317-0.413-0.479-0.621c0.006-0.013,0-0.019-0.013-0.031c-0.124-0.229-0.252-0.46-0.374-0.689
	c-0.061-0.192-0.123-0.379-0.183-0.561c-0.004-0.025-0.015-0.038-0.018-0.056c-0.011-0.041-0.02-0.082-0.03-0.122
	c-0.007-0.029-0.016-0.062-0.021-0.093c-0.023-0.127-0.043-0.252-0.063-0.385c-0.016-0.232-0.026-0.46-0.041-0.692
	c0.003-0.095,0.007-0.198,0.015-0.3c0.008-0.07,0.014-0.141,0.026-0.215c0.003-0.048,0.003-0.09,0.01-0.134
	c0.086-0.428,0.226-0.846,0.388-1.256c0.251-0.466,0.544-0.91,0.904-1.301c0.033-0.028,0.062-0.053,0.09-0.081
	c0.28-0.26,0.604-0.463,0.903-0.697c0.003-0.018,0.005-0.029,0.005-0.041c0-0.174,0-0.346,0-0.519c0-0.218,0-0.433,0-0.652
	c0-0.216,0-0.434,0-0.647c0-0.217,0-0.432,0-0.653c0-0.216,0-0.434,0-0.648c0-0.213,0-0.435,0-0.651s0-0.432,0-0.648
	c0-0.215,0-0.432,0-0.65c0-0.215,0-0.434,0-0.647c0-0.22,0-0.434,0-0.647c0-0.22,0-0.434,0-0.652c0.043-0.283,0.032-0.539-0.3-0.639
	l-0.005-0.02l-0.016,0.003c-0.194-0.155-0.388-0.315-0.586-0.472c-0.055-0.057-0.113-0.115-0.17-0.17
	c-0.172-0.224-0.346-0.438-0.518-0.661c-0.112-0.216-0.229-0.432-0.342-0.643c-0.142-0.354-0.246-0.712-0.327-1.083
	c-0.009-0.032-0.011-0.062-0.017-0.085c-0.011-0.043-0.014-0.091-0.021-0.129c-0.013-0.217-0.022-0.434-0.038-0.647
	c0.004-0.087,0.006-0.175,0.012-0.26c0.004-0.059,0.011-0.114,0.016-0.176c0.011-0.072,0.014-0.145,0.021-0.214
	c0.019-0.247,0.256-0.512-0.083-0.716c-0.14-0.169-0.295-0.323-0.461-0.467c-0.079-0.076-0.154-0.152-0.23-0.23
	c-0.126-0.149-0.27-0.29-0.421-0.418c-0.063-0.061-0.124-0.121-0.188-0.187c-0.024-0.024-0.042-0.06-0.067-0.085
	c-0.198-0.198-0.198-0.198-0.394-0.006c-1.085,1.086-2.171,2.172-3.259,3.259c-1.99,1.983-3.979,3.971-5.97,5.964
	c-0.165,0.173-0.368,0.32-0.459,0.56c-0.245,0.39-0.309,0.808-0.178,1.249c0.013,0.064,0.011,0.124,0.056,0.169
	c0.063,0.257,0.232,0.448,0.406,0.626c1.033,1.032,2.062,2.058,3.09,3.091c2.26,2.258,4.518,4.515,6.78,6.778
	c1.599,1.595,3.187,3.193,4.787,4.79c0.36,0.354,0.782,0.583,1.31,0.53c0.477,0.004,0.854-0.191,1.159-0.551
	c0.121-0.095,0.23-0.2,0.319-0.324c0.129-0.098,0.241-0.209,0.344-0.332c0.115-0.097,0.221-0.201,0.319-0.318
	c0.11-0.117,0.217-0.22,0.33-0.335c0.098-0.104,0.204-0.204,0.311-0.31c0.126-0.094,0.235-0.211,0.335-0.338
	c0.117-0.093,0.22-0.195,0.313-0.313c0.123-0.099,0.236-0.211,0.334-0.339c0.113-0.102,0.211-0.207,0.317-0.31
	c0.113-0.112,0.217-0.22,0.326-0.328c0.119-0.094,0.227-0.202,0.318-0.319c0.125-0.094,0.234-0.208,0.334-0.326
	c0.117-0.101,0.227-0.205,0.319-0.325c0.126-0.097,0.241-0.215,0.341-0.334c0.099-0.104,0.205-0.211,0.31-0.314
	c0.108-0.111,0.224-0.219,0.33-0.328c0.116-0.095,0.226-0.204,0.319-0.324c0.126-0.097,0.236-0.211,0.339-0.331
	c0.115-0.102,0.224-0.207,0.319-0.322c0.109-0.107,0.218-0.217,0.327-0.331c0.104-0.106,0.21-0.211,0.312-0.317
	c0.129-0.092,0.244-0.207,0.342-0.333c0.113-0.095,0.217-0.193,0.307-0.312c0.128-0.104,0.246-0.212,0.339-0.341
	c0.104-0.103,0.206-0.209,0.315-0.304c0.112-0.116,0.222-0.227,0.33-0.338c0.117-0.09,0.225-0.196,0.315-0.317
	c0.126-0.093,0.229-0.209,0.335-0.327c0.117-0.098,0.222-0.2,0.316-0.318c0.129-0.1,0.237-0.22,0.34-0.339
	c0.106-0.106,0.211-0.208,0.311-0.313c0.108-0.108,0.22-0.221,0.328-0.332c0.115-0.093,0.229-0.198,0.319-0.32
	c0.129-0.096,0.239-0.208,0.339-0.335c0.117-0.096,0.225-0.205,0.322-0.32c0.108-0.112,0.217-0.218,0.326-0.329
	c0.104-0.1,0.208-0.211,0.314-0.309c0.127-0.103,0.237-0.213,0.342-0.341c0.108-0.099,0.215-0.2,0.309-0.312
	c0.127-0.104,0.235-0.214,0.336-0.339c0.104-0.104,0.208-0.207,0.313-0.31c0.109-0.112,0.218-0.223,0.329-0.333
	c0.117-0.094,0.226-0.197,0.319-0.321c0.126-0.096,0.229-0.205,0.327-0.324c0.111-0.118,0.22-0.224,0.33-0.335
	c0.359-0.301,0.554-0.683,0.551-1.162c0.044-0.516-0.167-0.938-0.518-1.289c-0.887-0.891-1.767-1.771-2.648-2.651
	c-1.803-1.801-3.615-3.609-5.417-5.413c-2.21-2.209-4.415-4.421-6.622-6.626c-0.174-0.172-0.364-0.325-0.609-0.389
	c-0.041-0.054-0.109-0.047-0.172-0.059c-0.437-0.129-0.854-0.07-1.254,0.175c-0.122,0.041-0.217,0.13-0.306,0.221
	c-0.535,0.531-1.069,1.063-1.603,1.603c-0.248,0.249-0.248,0.255,0.029,0.489c0.07,0.102,0.168,0.191,0.269,0.268
	c0.096,0.128,0.213,0.236,0.339,0.339c0.087,0.118,0.194,0.218,0.311,0.313c0.11,0.137,0.239,0.266,0.383,0.377
	c0.107,0.166,0.227,0.261,0.443,0.176c0.111-0.049,0.237-0.049,0.358-0.072c0.103-0.011,0.196-0.021,0.293-0.026
	c0.305,0.002,0.605,0.005,0.909,0.016c0.029,0.002,0.05,0.011,0.076,0.017c0.02,0.007,0.031,0.007,0.05,0.007
	c0.17,0.027,0.344,0.068,0.52,0.104c0.03,0.006,0.06,0.017,0.09,0.026c0.18,0.067,0.366,0.137,0.556,0.201
	c0.216,0.114,0.434,0.234,0.654,0.347c0.047,0.029,0.084,0.061,0.127,0.087c0.158,0.126,0.318,0.252,0.479,0.37
	c0.083,0.093,0.176,0.173,0.259,0.262c0.137,0.16,0.27,0.315,0.396,0.475c0.032,0.043,0.062,0.086,0.094,0.133
	c0.136,0.246,0.274,0.488,0.415,0.735c0.034,0.105,0.072,0.204,0.115,0.31c0.035,0.101,0.067,0.202,0.102,0.301
	c0.035,0.176,0.069,0.343,0.109,0.517c0.041,0.388,0.076,0.776,0.041,1.165c-0.006,0.076-0.006,0.146-0.018,0.219
	c-0.023,0.136-0.029,0.275-0.082,0.393c-0.072,0.173-0.009,0.271,0.126,0.354c0.117,0.139,0.245,0.27,0.383,0.384
	c0.073,0.105,0.174,0.187,0.269,0.27c0.096,0.119,0.211,0.235,0.335,0.339c0.093,0.117,0.198,0.217,0.313,0.308
	c0.117,0.138,0.241,0.271,0.383,0.382c0.119,0.197,0.277,0.285,0.506,0.191c0.067-0.028,0.141-0.028,0.211-0.044
	c0.063-0.014,0.126-0.02,0.193-0.029c0.075-0.01,0.152-0.021,0.229-0.029c0.073,0,0.141-0.002,0.218-0.002
	c0.216,0.009,0.43,0.021,0.646,0.034c0.056,0.007,0.114,0.011,0.172,0.013c0.038,0.034,0.095,0.034,0.146,0.025
	c0.039,0.009,0.074,0.017,0.109,0.022c0.028,0.033,0.061,0.029,0.097,0.022c0.022,0.007,0.048,0.011,0.081,0.017
	c0.022,0.027,0.055,0.027,0.086,0.027c0.03,0.012,0.063,0.018,0.088,0.021C34.183,20.502,34.196,20.509,34.209,20.514z"/>
</svg>
