<?xml version="1.0" encoding="utf-8"?>
<!-- Generator: Adobe Illustrator 16.0.0, SVG Export Plug-In . SVG Version: 6.00 Build 0)  -->
<!DOCTYPE svg PUBLIC "-//W3C//DTD SVG 1.1//EN" "http://www.w3.org/Graphics/SVG/1.1/DTD/svg11.dtd">
<svg version="1.1" id="Layer_1" xmlns="http://www.w3.org/2000/svg" xmlns:xlink="http://www.w3.org/1999/xlink" x="0px" y="0px"
	 width="120px" height="120px" viewBox="0 0 120 120" enable-background="new 0 0 120 120" xml:space="preserve">
<path fill-rule="evenodd" clip-rule="evenodd" fill="currentColor" d="M66.626,76.906c2.162-0.299,4.264-0.649,6.279-1.351
	c5.439-1.871,8.646-5.663,9.723-11.284c0.553-2.863,0.748-5.731,0.131-8.615c-0.479-2.246-1.504-4.231-2.994-5.97
	c-0.256-0.293-0.32-0.519-0.201-0.904c0.924-2.983,0.652-5.916-0.387-8.816c-0.133-0.362-0.377-0.367-0.668-0.377
	c-1.801-0.046-3.441,0.556-5.049,1.271c-1.396,0.62-2.719,1.41-3.986,2.261c-0.279,0.185-0.5,0.229-0.832,0.141
	c-4.211-1.086-8.48-1.366-12.791-0.852c-1.477,0.17-2.943,0.414-4.371,0.829c-0.404,0.125-0.713,0.059-1.061-0.174
	c-2.035-1.351-4.15-2.522-6.535-3.166c-0.82-0.218-1.652-0.342-2.516-0.311c-0.303,0.01-0.457,0.12-0.568,0.415
	c-1.055,2.943-1.332,5.909-0.336,8.924c0.076,0.222,0.086,0.369-0.092,0.572c-2.824,3.254-3.809,7.061-3.477,11.297
	c0.201,2.547,0.613,5.03,1.676,7.367c1.758,3.838,4.818,6.18,8.729,7.493c1.936,0.651,3.932,1.022,6.023,1.259
	c-0.236,0.268-0.465,0.511-0.66,0.768c-0.832,1.079-1.275,2.315-1.516,3.635c-0.035,0.211-0.023,0.443-0.287,0.552
	c-2.297,0.912-4.609,1.281-6.955,0.185c-1.4-0.651-2.416-1.725-3.213-3.027c-0.992-1.624-2.252-2.945-4.076-3.646
	c-0.787-0.299-1.604-0.419-2.439-0.29c-0.332,0.048-0.715,0.126-0.84,0.496c-0.117,0.351,0.156,0.611,0.387,0.833
	c0.246,0.239,0.494,0.486,0.789,0.656c2.029,1.199,3.24,3.063,4.1,5.165c1.184,2.883,3.42,4.331,6.367,4.841
	c1.848,0.318,3.699,0.197,5.533-0.188c0.314-0.068,0.432-0.037,0.436,0.328c0.008,2.076,0.064,4.165,0.064,6.254
	c-0.01,1.434-1.146,2.24-2.533,1.799c-4.168-1.356-7.936-3.441-11.318-6.209c-6.061-4.949-10.15-11.205-12.203-18.745
	c-1.012-3.742-1.408-7.56-1.176-11.455c0.439-7.322,2.809-13.929,7.23-19.764c5.492-7.244,12.719-11.815,21.615-13.734
	c3.078-0.662,6.193-0.884,9.33-0.699c7.623,0.446,14.482,2.995,20.494,7.754c6.043,4.789,10.15,10.902,12.367,18.289
	c1.23,4.107,1.67,8.311,1.375,12.564c-0.559,8.071-3.484,15.229-8.779,21.355c-4.242,4.914-9.459,8.415-15.598,10.556
	c-1.328,0.472-2.375,0.057-2.744-1.034c-0.088-0.28-0.076-0.559-0.076-0.841c0.012-3.344,0.029-6.682,0.012-10.029
	C68.989,80.901,68.397,78.708,66.626,76.906z"/>
</svg>
