<?xml version="1.0" encoding="utf-8"?>
<!-- Generator: Adobe Illustrator 16.0.0, SVG Export Plug-In . SVG Version: 6.00 Build 0)  -->
<!DOCTYPE svg PUBLIC "-//W3C//DTD SVG 1.1//EN" "http://www.w3.org/Graphics/SVG/1.1/DTD/svg11.dtd">
<svg version="1.1" id="Layer_1" xmlns="http://www.w3.org/2000/svg" xmlns:xlink="http://www.w3.org/1999/xlink" x="0px" y="0px"
	 width="50px" height="50px" viewBox="0 0 50 50" enable-background="new 0 0 50 50" xml:space="preserve">
<g>
	<g>
		<path fill="currentColor" d="M44.004,23.582c-0.191,0.242-0.449,0.381-0.742,0.381c-0.244,0-0.486-0.086-0.709-0.258
			c-0.365-0.297-0.727-0.59-1.107-0.885l-2.783-2.264c-4.496-3.648-8.99-7.277-13.486-10.943c-0.24-0.189-0.275-0.172-0.482-0.016
			c-4.961,3.922-9.924,7.83-14.885,11.738l-2.162,1.709c-0.225,0.191-0.502,0.398-0.881,0.416c-0.416-0.033-0.691-0.225-0.848-0.535
			c-0.191-0.363-0.154-0.744,0.104-1.039c0.139-0.172,0.293-0.293,0.449-0.412L23.967,7.693c0.434-0.346,0.674-0.5,0.969-0.5
			c0.328,0,0.623,0.207,0.984,0.52l17.564,14.227c0.104,0.07,0.209,0.156,0.313,0.26C44.246,22.613,44.332,23.15,44.004,23.582z"/>
	</g>
	<g>
		<g>
			<path fill="currentColor" d="M39.578,25.225v15.662h-9.525v-8.66c0-0.986-0.795-1.781-1.779-1.781h-6.537
				c-0.969,0-1.764,0.795-1.764,1.781v8.66h-9.439V25.225c0-1.227-1.902-1.227-1.902,0v16.613c0,0.537,0.416,0.969,0.936,0.969
				h30.963c0.535,0,0.967-0.432,0.967-0.969V25.225C41.496,23.998,39.578,23.998,39.578,25.225z M28.236,40.887h-6.447V32.26h6.447
				V40.887z"/>
		</g>
	</g>
</g>
</svg>
