<?xml version="1.0" encoding="utf-8"?>
<!-- Generator: Adobe Illustrator 16.0.0, SVG Export Plug-In . SVG Version: 6.00 Build 0)  -->
<!DOCTYPE svg PUBLIC "-//W3C//DTD SVG 1.1//EN" "http://www.w3.org/Graphics/SVG/1.1/DTD/svg11.dtd">
<svg version="1.1" id="Layer_1" xmlns="http://www.w3.org/2000/svg" xmlns:xlink="http://www.w3.org/1999/xlink" x="0px" y="0px"
	 width="120px" height="120px" viewBox="0 0 120 120" enable-background="new 0 0 120 120" xml:space="preserve">
<g>
	<path fill-rule="evenodd" clip-rule="evenodd" fill="currentColor" d="M94.875,59.939c-0.068-0.798-0.117-1.605-0.025-2.406
		c-0.068-0.796-0.068-1.601,0-2.392c-0.068-0.803-0.068-1.607,0-2.403c-0.048-0.801-0.12-1.598-0.061-2.4
		c-0.01-0.799-0.026-1.6-0.043-2.402c-0.092-0.838-0.116-1.672-0.116-2.514c-0.009-0.16-0.015-0.312-0.027-0.474
		c-0.06-0.607-0.112-1.198-0.168-1.809c-0.128-0.805-0.253-1.609-0.384-2.406c-0.201-0.794-0.404-1.597-0.607-2.394
		c-0.321-0.805-0.637-1.605-0.956-2.406c-0.09-0.195-0.181-0.398-0.272-0.594c-0.365-0.599-0.72-1.203-1.084-1.796
		c-0.4-0.517-0.797-1.033-1.195-1.548c-0.27-0.288-0.541-0.584-0.817-0.866c-0.526-0.481-1.048-0.963-1.57-1.444
		c-0.417-0.309-0.836-0.613-1.249-0.932c-0.388-0.232-0.779-0.475-1.168-0.705c-0.796-0.371-1.591-0.74-2.387-1.118
		c-0.481-0.161-0.961-0.321-1.439-0.479c-0.322-0.092-0.637-0.185-0.965-0.264c-0.801-0.162-1.596-0.321-2.392-0.481
		c-0.806-0.091-1.6-0.174-2.408-0.257c-0.795-0.042-1.596-0.083-2.396-0.118c-0.798-0.04-1.599-0.068-2.401-0.094
		c-0.801-0.022-1.602-0.035-2.393-0.05c-0.809-0.008-1.605-0.022-2.404-0.035c-0.8,0.07-1.607,0.05-2.403,0.004
		c-0.797,0.059-1.6,0.1-2.404-0.024c-0.797,0-1.6,0-2.396,0c-0.799,0.105-1.604,0.083-2.4,0.021c-0.803,0.07-1.6,0.05-2.396,0.004
		c-0.803,0.096-1.611,0.035-2.414,0.031c-0.797,0.015-1.593,0.027-2.388,0.05c-0.805,0.019-1.607,0.052-2.408,0.094
		c-0.796,0.035-1.599,0.07-2.396,0.107c-0.797,0.1-1.6,0.188-2.404,0.276c-0.799,0.161-1.604,0.325-2.4,0.491
		c-0.268,0.122-0.543,0.216-0.84,0.245c-0.515,0.178-1.035,0.369-1.56,0.558c-0.799,0.371-1.604,0.745-2.406,1.112
		c-0.396,0.249-0.784,0.495-1.192,0.748c-0.4,0.312-0.803,0.616-1.212,0.921c-0.548,0.513-1.091,1.027-1.646,1.531
		c-0.242,0.27-0.482,0.541-0.726,0.813c-0.365,0.469-0.722,0.939-1.085,1.408c-0.4,0.674-0.801,1.36-1.203,2.033
		c-0.052,0.118-0.102,0.234-0.153,0.356c-0.312,0.801-0.635,1.598-0.952,2.406c-0.203,0.797-0.41,1.6-0.614,2.394
		c-0.116,0.635-0.228,1.284-0.34,1.925c-0.085,0.994-0.168,1.998-0.253,3.004c0.024,0.681,0.012,1.361-0.096,2.035
		c-0.008,0.079-0.008,0.16-0.013,0.238c0.048,0.803,0.021,1.604-0.035,2.402c0.052,0.803-0.028,1.6-0.052,2.4
		c0.074,0.796,0.074,1.601-0.004,2.406c0.056,0.796,0.043,1.593,0.004,2.389c0.127,0.801-0.004,1.608-0.033,2.406
		c0.029,0.801,0.112,1.594,0.033,2.39c0.074,0.81,0.074,1.614-0.004,2.419c0.061,0.795,0.043,1.587,0.004,2.39
		c0.066,0.799,0.12,1.604,0.052,2.406c0.015,0.681,0.022,1.358,0.035,2.037c0.057,0.126,0.048,0.247,0.009,0.358
		c0.024,0.402,0.048,0.806,0.076,1.208c0.048,2.01,0.23,4.005,0.579,5.982c0.205,0.794,0.409,1.589,0.62,2.381
		c0.301,0.813,0.612,1.618,0.917,2.423c0.118,0.144,0.199,0.303,0.229,0.478c0.371,0.645,0.733,1.277,1.107,1.916
		c1.035,1.44,2.233,2.72,3.552,3.888c0.406,0.307,0.811,0.62,1.219,0.927c0.448,0.276,0.893,0.548,1.34,0.824
		c1.108,0.479,2.221,0.969,3.328,1.449c0.447,0.081,0.888,0.206,1.314,0.376c0.797,0.166,1.602,0.325,2.4,0.491
		c0.805,0.09,1.6,0.179,2.396,0.266c0.806,0.044,1.608,0.081,2.413,0.125c0.792,0.028,1.595,0.062,2.392,0.087
		c0.803,0,1.604-0.037,2.403,0.052c0.808,0.009,1.604,0.021,2.406,0.035c0.797-0.07,1.594-0.07,2.389,0.004
		c0.805-0.06,1.609-0.087,2.408,0.013c0.796,0,1.599,0.004,2.396,0.004c0.805-0.111,1.599-0.068,2.396-0.021
		c0.805-0.083,1.612-0.083,2.417,0c0.794-0.056,1.591-0.07,2.388,0.004c0.799-0.17,1.604-0.06,2.406-0.091
		c0.801-0.025,1.602-0.059,2.39-0.087c0.811-0.044,1.611-0.081,2.414-0.125c0.801-0.085,1.595-0.174,2.396-0.251
		c0.801-0.166,1.6-0.323,2.4-0.487c0.479-0.133,0.961-0.262,1.432-0.395c1.124-0.485,2.24-0.979,3.355-1.462
		c0.488-0.313,0.972-0.616,1.457-0.915c0.271-0.203,0.552-0.408,0.823-0.62c1.431-1.211,2.716-2.563,3.804-4.091
		c0.332-0.556,0.66-1.12,0.992-1.67c0.116-0.246,0.232-0.48,0.351-0.724c0.301-0.795,0.61-1.593,0.908-2.39
		c0.681-2.146,0.925-4.375,1.164-6.601c0.009-0.197,0.009-0.398,0.017-0.605c-0.035-0.805,0.008-1.602,0.111-2.398
		c0.005-0.796,0.021-1.593,0.031-2.396c-0.052-0.812,0-1.609,0.053-2.414c-0.053-0.797-0.066-1.589,0.008-2.382
		c-0.068-0.805-0.068-1.609,0-2.414C94.746,61.533,94.842,60.74,94.875,59.939z M88.502,59.936c0,0.805,0,1.604,0,2.402
		c0.052,0.801,0.037,1.605-0.014,2.402c0,0.803,0,1.599,0,2.401c-0.009,0.799-0.018,1.591-0.025,2.395
		c0.056,0.809-0.021,1.607-0.083,2.403c0.006,0.806,0.022,1.61-0.112,2.398c0.023,0.819-0.052,1.613-0.229,2.402
		c-0.024,0.666-0.145,1.303-0.364,1.927c0.008,0.174-0.009,0.34-0.135,0.475c-0.16,0.861-0.492,1.655-0.9,2.425
		c-0.365,0.841-0.865,1.592-1.496,2.245c-0.043,0.048-0.081,0.089-0.12,0.135c-0.645,0.799-1.408,1.473-2.279,2.014
		c-0.208,0.171-0.417,0.341-0.685,0.405c-0.517,0.381-1.112,0.602-1.72,0.796c-0.755,0.345-1.564,0.546-2.379,0.687
		c-0.801,0.181-1.6,0.326-2.426,0.336c-0.79,0.135-1.586,0.144-2.387,0.16c-0.803,0.021-1.604,0.037-2.411,0.064
		c-0.796,0.129-1.597,0.063-2.399,0.081c-0.797,0-1.594,0-2.396,0c-0.805,0-1.604,0-2.399,0c-0.797,0-1.6,0-2.404,0
		c-0.797,0-1.6,0-2.396,0c-0.799,0-1.604,0-2.408,0c-0.795,0-1.592,0-2.396,0c-0.795-0.011-1.604-0.015-2.402-0.019
		c-0.801,0.019-1.604,0.047-2.399-0.063c-0.797-0.027-1.6-0.044-2.4-0.064c-0.805-0.046-1.611-0.013-2.404-0.174
		c-0.815-0.018-1.615-0.135-2.399-0.363c-0.84-0.104-1.643-0.357-2.41-0.705c-0.568-0.164-1.098-0.402-1.577-0.736
		c-0.309-0.116-0.576-0.274-0.809-0.496c-0.836-0.517-1.535-1.176-2.155-1.923c-0.125-0.085-0.232-0.17-0.268-0.321
		c-0.592-0.6-1.008-1.301-1.357-2.059c-0.387-0.773-0.729-1.563-0.896-2.425c-0.515-1.558-0.687-3.167-0.72-4.804
		c-0.131-0.79-0.127-1.593-0.118-2.398c-0.029-0.796-0.061-1.601-0.081-2.403c-0.008-0.804-0.021-1.596-0.027-2.395
		c0-0.803,0-1.599,0-2.401c0-0.797,0-1.602,0-2.395c0-0.807,0-1.605,0-2.41c0-0.794,0-1.602,0-2.394c0-0.799,0-1.609,0-2.406
		s0-1.602,0-2.396c0.007-0.799,0.015-1.604,0.027-2.406c0.027-0.799,0.052-1.598,0.087-2.393c0.042-2.058,0.064-4.115,0.594-6.123
		c0.019-0.377,0.126-0.73,0.255-1.08c0.236-0.902,0.548-1.766,1.024-2.57c0.312-0.666,0.691-1.284,1.216-1.795
		c0.072-0.199,0.207-0.336,0.38-0.439c0.533-0.672,1.167-1.236,1.888-1.694c0.404-0.347,0.844-0.629,1.356-0.826
		c0.406-0.261,0.845-0.438,1.311-0.572c0.732-0.319,1.487-0.554,2.28-0.651c0.784-0.232,1.584-0.342,2.399-0.359
		c0.793-0.157,1.6-0.148,2.413-0.174c0.792-0.021,1.595-0.043,2.392-0.064c0.796-0.131,1.599-0.063,2.403-0.074
		c0.808,0,1.596,0,2.398,0c0.797,0,1.602,0,2.4,0c0.801-0.035,1.605-0.07,2.404-0.015c0.796,0,1.599,0,2.396,0
		c0.805,0.004,1.599,0.008,2.404,0.015c0.796,0,1.595,0,2.399,0c0.803,0,1.6,0,2.396,0c0.803,0.012,1.611-0.066,2.406,0.074
		c0.801,0.021,1.602,0.044,2.39,0.064c0.815,0.009,1.618,0.021,2.419,0.168c0.811,0,1.599,0.133,2.387,0.317
		c0.884,0.166,1.753,0.38,2.576,0.768c0.404,0.105,0.797,0.262,1.151,0.504c0.393,0.144,0.753,0.361,1.081,0.629
		c0.779,0.473,1.452,1.062,2.043,1.753c0.144,0.105,0.284,0.224,0.353,0.394c0.616,0.627,1.1,1.338,1.436,2.151
		c0.44,0.751,0.741,1.554,0.94,2.398c0.08,0.19,0.176,0.379,0.146,0.599c0.422,1.411,0.598,2.853,0.598,4.325
		c0.01,0.066,0.015,0.151,0.019,0.232c0.112,0.672,0.1,1.356,0.094,2.041c0.06,0.801,0.126,1.596,0.087,2.398
		c0.008,0.803,0.017,1.607,0.025,2.406c0,0.794,0,1.599,0,2.396c0.043,0.797,0.065,1.607,0.014,2.406
		C88.502,58.334,88.502,59.142,88.502,59.936z"/>
	<path fill-rule="evenodd" clip-rule="evenodd" fill="currentColor" d="M81.504,38.354c-0.385-0.26-0.772-0.511-1.16-0.764
		c-0.771-0.332-1.576-0.398-2.4-0.344c-0.871,0.187-1.639,0.55-2.305,1.146l-0.03,0.044c-0.604,0.653-1.009,1.414-1.177,2.296
		c-0.082,0.817,0.009,1.62,0.28,2.398c0.272,0.406,0.548,0.809,0.823,1.22c0.504,0.447,1.072,0.801,1.685,1.076
		c0.241,0.054,0.479,0.102,0.72,0.147c1.017,0.096,1.981-0.029,2.861-0.594c1.543-1.001,2.09-2.47,1.955-4.243
		c-0.041-0.204-0.089-0.398-0.133-0.606C82.352,39.48,81.98,38.883,81.504,38.354z"/>
	<path fill-rule="evenodd" clip-rule="evenodd" fill="currentColor" d="M77.305,55.32c-0.305-0.854-0.607-1.718-0.916-2.58
		c-0.824-1.747-1.871-3.34-3.125-4.805c-0.039-0.037-0.078-0.078-0.12-0.12c-0.786-0.77-1.591-1.517-2.456-2.194l-0.031-0.02
		c-0.771-0.491-1.555-0.986-2.327-1.48c-0.633-0.291-1.271-0.583-1.904-0.865c-0.172-0.058-0.344-0.116-0.517-0.172
		c-0.786-0.222-1.574-0.446-2.366-0.66c-0.797-0.102-1.6-0.199-2.4-0.288c-0.801,0-1.604,0-2.408,0
		c-0.79,0.1-1.583,0.208-2.384,0.313c-0.803,0.229-1.607,0.448-2.412,0.678c-0.118,0.044-0.234,0.086-0.363,0.129
		c-0.68,0.307-1.36,0.631-2.035,0.944c-1.796,0.999-3.381,2.269-4.804,3.735c-0.864,1.039-1.659,2.141-2.379,3.299
		c-0.253,0.497-0.5,1.002-0.749,1.506c-0.303,0.862-0.6,1.726-0.904,2.599c-0.144,0.73-0.295,1.467-0.436,2.199
		c-0.293,2.421-0.156,4.814,0.465,7.181c0.275,0.801,0.552,1.605,0.832,2.402c0.792,1.755,1.835,3.351,3.063,4.818
		c0.035,0.046,0.076,0.081,0.107,0.119c1.456,1.526,3.107,2.8,4.956,3.829c0.516,0.238,1.026,0.471,1.535,0.718
		c0.266,0.026,0.491,0.139,0.711,0.271c0.805,0.218,1.609,0.443,2.412,0.678c0.801,0.1,1.596,0.204,2.393,0.313
		c0.796,0,1.595,0,2.392,0c0.8-0.1,1.603-0.192,2.399-0.292c0.801-0.221,1.596-0.442,2.388-0.666
		c0.284-0.102,0.568-0.208,0.853-0.305c0.517-0.252,1.035-0.483,1.556-0.729c0.808-0.508,1.612-1.026,2.413-1.539
		c0.838-0.676,1.639-1.396,2.401-2.151c0.077-0.079,0.153-0.166,0.229-0.247c1.224-1.477,2.288-3.057,3.067-4.818
		c0.28-0.797,0.561-1.602,0.836-2.402c0.424-1.57,0.557-3.174,0.646-4.787c-0.056-0.79-0.116-1.598-0.177-2.39
		C77.596,56.804,77.448,56.065,77.305,55.32z M70.864,63.906c-0.027,0.315-0.354,0.504-0.354,0.834
		c-0.594,1.626-1.668,2.887-2.934,4.016c-0.487,0.432-1,0.854-1.6,1.143c-0.755,0.488-1.551,0.878-2.435,1.096
		c-0.764,0.311-1.564,0.473-2.396,0.5c-0.806,0.139-1.608,0.147-2.413-0.015c-0.827-0.022-1.624-0.22-2.396-0.506
		c-3.178-1.089-5.482-3.147-6.866-6.22c-0.224-0.383-0.384-0.781-0.452-1.215c-0.465-1.16-0.62-2.363-0.581-3.6
		c-0.019-1.744,0.341-3.405,1.159-4.959c1.413-2.936,3.662-4.91,6.74-5.947c0.771-0.288,1.563-0.492,2.392-0.504
		c0.809-0.17,1.62-0.162,2.425-0.021c0.823,0.023,1.624,0.183,2.388,0.49c2.207,0.663,4.012,1.918,5.435,3.728
		c0.607,0.666,1.089,1.414,1.425,2.259c0.234,0.336,0.388,0.707,0.472,1.109c0.248,0.444,0.327,0.932,0.431,1.426
		c0.177,0.794,0.326,1.593,0.262,2.42C71.617,61.311,71.401,62.637,70.864,63.906z"/>
</g>
</svg>
