<?xml version="1.0" encoding="utf-8"?>
<!-- Generator: Adobe Illustrator 16.0.0, SVG Export Plug-In . SVG Version: 6.00 Build 0)  -->
<!DOCTYPE svg PUBLIC "-//W3C//DTD SVG 1.1//EN" "http://www.w3.org/Graphics/SVG/1.1/DTD/svg11.dtd">
<svg version="1.1" id="Layer_1" xmlns="http://www.w3.org/2000/svg" xmlns:xlink="http://www.w3.org/1999/xlink" x="0px" y="0px"
	 width="120px" height="120px" viewBox="0 0 120 120" enable-background="new 0 0 120 120" xml:space="preserve">
<path fill-rule="evenodd" clip-rule="evenodd" fill="currentColor" d="M24.246,60.004c0-9.515-0.005-19.029,0-28.545
	c0-4.603,2.615-7.211,7.232-7.215c19.032-0.002,38.061-0.002,57.088,0c4.555,0.004,7.188,2.626,7.188,7.168
	c0.002,19.058,0.002,38.115,0,57.176c0,4.543-2.633,7.166-7.188,7.166c-19.055,0.005-38.12,0.005-57.177,0
	c-4.49,0-7.142-2.642-7.144-7.114C24.241,79.094,24.246,69.549,24.246,60.004z M63.369,54.771c0-0.698,0.002-1.39,0-2.086
	c-0.014-1.562-0.602-2.156-2.165-2.163c-2.479-0.006-4.956-0.006-7.434,0c-1.554,0.004-2.186,0.625-2.186,2.163
	c-0.004,11.013-0.006,22.022,0,33.035c0,1.478,0.649,2.109,2.141,2.118c2.448,0.007,4.896,0.006,7.343,0.002
	c1.745-0.002,2.301-0.561,2.301-2.307c0-5.631-0.006-11.259,0.002-16.887c0.005-1.924,0.382-3.772,1.297-5.479
	c1.233-2.302,3.36-3.4,6.027-3.145c2.443,0.237,4.109,1.656,4.893,4.19c0.51,1.655,0.57,3.363,0.568,5.083
	c-0.016,5.506-0.016,11.011-0.014,16.519c0,1.499,0.605,2.1,2.123,2.1c2.543,0.006,5.08,0.005,7.615,0.003
	c1.787-0.003,2.346-0.563,2.346-2.366c0.002-5.414,0.002-10.827,0-16.24c-0.002-2.111-0.075-4.22-0.32-6.319
	c-0.25-2.135-0.715-4.221-1.615-6.186c-1.552-3.386-4.102-5.61-7.767-6.384c-4.214-0.888-8.333-0.764-12.135,1.599
	C65.233,52.736,64.384,53.779,63.369,54.771z M34.685,69.138c0,5.475-0.005,10.952,0,16.426c0,1.608,0.668,2.27,2.293,2.276
	c2.389,0.004,4.772,0.005,7.159-0.002c1.56-0.009,2.254-0.693,2.254-2.232c0.005-10.954,0.005-21.906,0-32.854
	c0-1.544-0.694-2.223-2.259-2.229c-2.358-0.009-4.714-0.006-7.067,0c-1.748,0.002-2.38,0.634-2.38,2.37
	C34.681,58.307,34.685,63.72,34.685,69.138z M48.093,39.759c0.014-4.277-3.313-7.651-7.564-7.673
	c-4.254-0.015-7.662,3.341-7.675,7.574c-0.014,4.258,3.335,7.649,7.578,7.674C44.688,47.359,48.08,44.006,48.093,39.759z"/>
</svg>
