<?xml version="1.0" encoding="utf-8"?>
<!-- Generator: Adobe Illustrator 16.0.0, SVG Export Plug-In . SVG Version: 6.00 Build 0)  -->
<!DOCTYPE svg PUBLIC "-//W3C//DTD SVG 1.1//EN" "http://www.w3.org/Graphics/SVG/1.1/DTD/svg11.dtd">
<svg version="1.1" id="Layer_1" xmlns="http://www.w3.org/2000/svg" xmlns:xlink="http://www.w3.org/1999/xlink" x="0px" y="0px"
	 width="50px" height="50px" viewBox="0 0 50 50" enable-background="new 0 0 50 50" xml:space="preserve">
<path fill-rule="evenodd" clip-rule="evenodd" fill="currentColor" d="M46.838,10.122C45.664,8.116,44.029,6.96,41.76,6.96
	c-11.108-0.007-22.215,0-33.324-0.01C7.543,6.945,6.711,7.112,5.907,7.493c-1.43,0.672-3.242,2.435-3.233,5.081
	c0.028,8.294,0.009,16.574,0.014,24.873c0,0.611,0.055,1.23,0.266,1.806c0.783,2.192,2.962,3.795,5.187,3.797
	c11.19,0,22.38-0.002,33.574,0c1.964,0.01,3.484-0.883,4.702-2.466c0.606-0.79,0.789-1.724,0.91-2.686V12.199
	C47.205,11.5,47.211,10.753,46.838,10.122z M7.91,10.211h34.24c0.014,0.029,0.018,0.066,0.039,0.104
	c-0.358,0.332-0.701,0.659-1.073,0.988c-5.224,4.773-10.465,9.551-15.688,14.339c-0.318,0.292-0.492,0.292-0.805,0
	c-5.436-4.981-10.884-9.949-16.316-14.921c-0.143-0.122-0.285-0.258-0.423-0.386C7.884,10.292,7.896,10.25,7.91,10.211z
	 M5.686,37.326c-0.055-0.002-0.103-0.013-0.163-0.013c0-8.073,0-16.139,0.004-24.214c0-0.264,0.034-0.522,0.204-0.773
	c1.028,0.945,2.055,1.872,3.069,2.806c2.79,2.549,5.58,5.101,8.369,7.636c0.188,0.165,0.3,0.275,0.076,0.526
	c-3.825,4.643-7.644,9.304-11.461,13.943C5.748,37.274,5.72,37.298,5.686,37.326z M42.42,39.646c-0.05,0.172-0.27,0.135-0.424,0.162
	c-0.212,0.038-0.432,0.038-0.65,0.038c-5.438,0-10.882,0-16.323,0c-5.434,0-10.854,0-16.284,0c-0.377,0-0.899,0.112-1.058-0.2
	c-0.126-0.247,0.347-0.563,0.562-0.828c3.703-4.517,7.41-9.026,11.107-13.543c0.212-0.247,0.316-0.237,0.538-0.021
	c1.311,1.21,2.64,2.411,3.962,3.616c0.896,0.824,1.461,0.817,2.37-0.008c1.306-1.197,2.618-2.398,3.925-3.603
	c0.219-0.201,0.338-0.257,0.573,0.028c3.816,4.665,7.649,9.328,11.474,13.978C42.293,39.387,42.465,39.496,42.42,39.646z
	 M44.389,37.391c-0.857-1.04-1.676-2.029-2.495-3.025c-2.999-3.66-5.991-7.313-8.998-10.955c-0.249-0.295-0.249-0.435,0.048-0.708
	c3.715-3.369,7.422-6.757,11.13-10.151c0.234-0.216,0.342-0.245,0.4,0.132c0.044,0.271,0.064,0.545,0.064,0.826
	c0,7.666,0,15.329,0,22.995C44.538,36.779,44.549,37.061,44.389,37.391z"/>
</svg>
