<?xml version="1.0" encoding="utf-8"?>
<!-- Generator: Adobe Illustrator 16.0.0, SVG Export Plug-In . SVG Version: 6.00 Build 0)  -->
<!DOCTYPE svg PUBLIC "-//W3C//DTD SVG 1.1//EN" "http://www.w3.org/Graphics/SVG/1.1/DTD/svg11.dtd">
<svg version="1.1" id="Layer_1" xmlns="http://www.w3.org/2000/svg" xmlns:xlink="http://www.w3.org/1999/xlink" x="0px" y="0px"
	 width="50px" height="50px" viewBox="0 0 50 50" enable-background="new 0 0 50 50" xml:space="preserve">
<path fill-rule="evenodd" clip-rule="evenodd" fill="currentColor" d="M41.496,14.964c-0.918-4.874-3.576-8.616-7.748-11.267
	c-2.694-1.654-5.662-2.439-8.579-2.439c-1.563-0.077-2.818,0.182-4.085,0.484c-4.436,1.092-7.867,3.613-10.349,7.437
	c-1.44,2.218-2.218,4.699-2.442,7.357c-0.127,1.165-0.076,2.343,0.092,3.514c0.26,1.39,0.694,2.706,1.209,4.047
	c1.09,2.876,2.533,5.567,4.063,8.22c2.032,3.575,4.25,7.013,6.563,10.402c1.225,1.783,2.48,3.607,3.783,5.307
	c0.168,0.225,0.356,0.435,0.564,0.567c0.304,0.218,0.525,0.218,0.829,0c0.222-0.171,0.393-0.343,0.563-0.567
	c0.742-0.868,1.354-1.781,2.012-2.697c3.387-4.79,6.606-9.66,9.389-14.779c1.303-2.447,2.483-4.93,3.439-7.49
	C41.76,20.406,42.058,17.701,41.496,14.964z M29.926,16.094c-0.053,2.747-2.406,4.968-4.967,4.92c-2.047,0-4.912-1.704-4.867-5.009
	c0.035-2.523,2.123-4.946,4.911-4.778C27.578,11.002,29.965,13.355,29.926,16.094z"/>
</svg>
