<?xml version="1.0" encoding="utf-8"?>
<!-- Generator: Adobe Illustrator 16.0.0, SVG Export Plug-In . SVG Version: 6.00 Build 0)  -->
<!DOCTYPE svg PUBLIC "-//W3C//DTD SVG 1.1//EN" "http://www.w3.org/Graphics/SVG/1.1/DTD/svg11.dtd">
<svg version="1.1" id="Layer_1" xmlns="http://www.w3.org/2000/svg" xmlns:xlink="http://www.w3.org/1999/xlink" x="0px" y="0px"
	 width="120px" height="120px" viewBox="0 0 120 120" enable-background="new 0 0 120 120" xml:space="preserve">
<path fill-rule="evenodd" clip-rule="evenodd" fill="currentColor" d="M96.385,60.185c0-11.77-0.02-23.53,0.03-35.29
	c0.01-1.09-0.22-1.31-1.3-1.31c-23.41,0.04-46.82,0.04-70.23,0c-1.08,0-1.3,0.22-1.3,1.31c0.04,23.4,0.04,46.811,0,70.22
	c0,1.08,0.22,1.301,1.3,1.301c23.41-0.04,46.82-0.04,70.23,0c1.08,0,1.31-0.221,1.3-1.301
	C96.365,83.475,96.385,71.824,96.385,60.185z M80.915,83.045c-2.12-0.12-4.24-0.08-6.36-0.11c-0.12-0.02-0.239-0.03-0.359-0.05
	c-0.61-0.54-0.29-1.25-0.29-1.87c-0.03-10.72-0.011-21.44-0.04-32.17v-0.08c0-2.14-1.24-2.25-1.7-2.22
	c-0.1,0.01-0.16,0.02-0.16,0.02c-3.51-0.03-7.03,0-10.54-0.109c-1.5-0.051-1.28,0.88-1.28,1.77c0,10.79,0,21.59-0.01,32.38
	c0,0.65,0.18,1.33-0.189,1.95c-0.011,0.22-0.061,0.42-0.351,0.38c-7.28,0.12-14.56,0.21-21.83-0.05c-0.229,0.01-0.41-0.03-0.38-0.32
	c-0.02-3.2-0.08-6.399-0.08-9.6c-0.01-11.061-0.01-22.12,0-33.17c0-0.66,0.061-1.32,0.08-1.99c-0.03-0.29,0.15-0.33,0.38-0.32
	c0.66-0.05,1.32-0.14,1.98-0.14c13.52-0.01,27.05,0,40.569,0c2.671,0,2.671,0,2.671,2.729c0,13.591-0.03,27.171,0.04,40.75
	C83.065,82.495,82.595,83.145,80.915,83.045z"/>
</svg>
