<?xml version="1.0" encoding="utf-8"?>
<!-- Generator: Adobe Illustrator 16.0.0, SVG Export Plug-In . SVG Version: 6.00 Build 0)  -->
<!DOCTYPE svg PUBLIC "-//W3C//DTD SVG 1.1//EN" "http://www.w3.org/Graphics/SVG/1.1/DTD/svg11.dtd">
<svg version="1.1" id="Layer_1" xmlns="http://www.w3.org/2000/svg" xmlns:xlink="http://www.w3.org/1999/xlink" x="0px" y="0px"
	 width="600px" height="600px" viewBox="0 0 600 600" enable-background="new 0 0 600 600" xml:space="preserve">
<g>
	<g>
		<g>
			<path fill="#4D3BCC" d="M193.553,73.317v118.863h26.692v37.343h-26.823v32.346h-49.308v-32.346H64.302v-38.789
				c14.024-16.127,27.984-34.844,41.879-56.145c13.892-21.301,25.18-41.725,33.857-61.272H193.553z M143.982,192.181v-55.224
				c-8.065,17.796-19.153,36.203-33.266,55.224H143.982z"/>
			<path fill="#4D3BCC" d="M378.423,166.016c0,32.345-6.159,56.957-18.474,73.83c-12.316,16.875-30.308,25.311-53.976,25.311
				c-24.193,0-42.272-7.758-54.238-23.273c-11.965-15.516-17.947-39.532-17.947-72.055c0-32.608,6.463-57.371,19.394-74.29
				c12.93-16.916,31.623-25.377,56.079-25.377C355.368,70.161,378.423,102.113,378.423,166.016z M323.198,166.016
				c0-18.758-1.314-32.609-3.943-41.55c-2.631-8.941-6.883-13.412-12.755-13.412c-11.484,0-17.225,19.197-17.225,57.591
				c0,18.849,1.335,32.806,4.01,41.878c2.673,9.073,6.903,13.61,12.688,13.61C317.456,224.133,323.198,204.761,323.198,166.016z"/>
			<path fill="#4D3BCC" d="M522.007,73.317v118.863h26.691v37.343h-26.822v32.346h-49.309v-32.346h-79.813v-38.789
				c14.024-16.127,27.984-34.844,41.879-56.145c13.893-21.301,25.18-41.725,33.857-61.272H522.007z M472.437,192.181v-55.224
				c-8.066,17.796-19.154,36.203-33.266,55.224H472.437z"/>
		</g>
	</g>
	<g>
		<g>
			<path fill="#674AE5" d="M187.553,73.317v118.863h26.692v37.343h-26.823v32.346h-49.308v-32.346H58.302v-38.789
				c14.024-16.127,27.984-34.844,41.879-56.145c13.892-21.301,25.18-41.725,33.857-61.272H187.553z M137.982,192.181v-55.224
				c-8.065,17.796-19.153,36.203-33.266,55.224H137.982z"/>
			<path fill="#674AE5" d="M372.423,166.016c0,32.345-6.159,56.957-18.474,73.83c-12.316,16.875-30.308,25.311-53.976,25.311
				c-24.193,0-42.272-7.758-54.238-23.273c-11.965-15.516-17.947-39.532-17.947-72.055c0-32.608,6.463-57.371,19.394-74.29
				c12.93-16.916,31.623-25.377,56.079-25.377C349.368,70.161,372.423,102.113,372.423,166.016z M317.198,166.016
				c0-18.758-1.314-32.609-3.943-41.55c-2.631-8.941-6.883-13.412-12.755-13.412c-11.484,0-17.225,19.197-17.225,57.591
				c0,18.849,1.335,32.806,4.01,41.878c2.673,9.073,6.903,13.61,12.688,13.61C311.456,224.133,317.198,204.761,317.198,166.016z"/>
			<path fill="#674AE5" d="M516.007,73.317v118.863h26.691v37.343h-26.822v32.346h-49.309v-32.346h-79.813v-38.789
				c14.024-16.127,27.984-34.844,41.879-56.145c13.893-21.301,25.18-41.725,33.857-61.272H516.007z M466.437,192.181v-55.224
				c-8.066,17.796-19.154,36.203-33.266,55.224H466.437z"/>
		</g>
	</g>
	<g>
		<g>
			<path fill="#AB88FF" d="M180.553,73.317v118.863h26.692v37.343h-26.823v32.346h-49.308v-32.346H51.302v-38.789
				c14.024-16.127,27.984-34.844,41.879-56.145c13.892-21.301,25.18-41.725,33.857-61.272H180.553z M130.982,192.181v-55.224
				c-8.065,17.796-19.153,36.203-33.266,55.224H130.982z"/>
			<path fill="#AB88FF" d="M365.423,166.016c0,32.345-6.159,56.957-18.474,73.83c-12.316,16.875-30.308,25.311-53.976,25.311
				c-24.193,0-42.272-7.758-54.238-23.273c-11.965-15.516-17.947-39.532-17.947-72.055c0-32.608,6.463-57.371,19.394-74.29
				c12.93-16.916,31.623-25.377,56.079-25.377C342.368,70.161,365.423,102.113,365.423,166.016z M310.198,166.016
				c0-18.758-1.314-32.609-3.943-41.55c-2.631-8.941-6.883-13.412-12.755-13.412c-11.484,0-17.225,19.197-17.225,57.591
				c0,18.849,1.335,32.806,4.01,41.878c2.673,9.073,6.903,13.61,12.688,13.61C304.456,224.133,310.198,204.761,310.198,166.016z"/>
			<path fill="#AB88FF" d="M509.007,73.317v118.863h26.691v37.343h-26.822v32.346h-49.309v-32.346h-79.813v-38.789
				c14.024-16.127,27.984-34.844,41.879-56.145c13.893-21.301,25.18-41.725,33.857-61.272H509.007z M459.437,192.181v-55.224
				c-8.066,17.796-19.154,36.203-33.266,55.224H459.437z"/>
		</g>
	</g>
</g>
<g>
	<path fill="#AB88FF" d="M140.949,318.521c0,2.291-0.581,4.324-1.742,6.102c-1.162,1.777-2.818,3.154-4.969,4.127
		c-2.151,0.975-4.653,1.463-7.506,1.463h-3.086v10.779h-10.102v-33.531h13.75c4.723,0,8.18,0.896,10.37,2.689
		C139.854,311.941,140.949,314.732,140.949,318.521z M130.263,318.871c0-1.371-0.397-2.408-1.192-3.109s-1.964-1.053-3.507-1.053
		h-1.917v8.277h2.268C128.813,322.986,130.263,321.615,130.263,318.871z"/>
	<path fill="#AB88FF" d="M157.317,340.992v-3.648h-0.093c-1.59,2.822-4.022,4.232-7.296,4.232c-2.26,0-4.03-0.67-5.308-2.012
		c-1.278-1.34-1.917-3.133-1.917-5.377c0-4.707,2.892-7.436,8.675-8.184l5.939-0.771c0-0.779-0.351-1.42-1.052-1.918
		c-0.701-0.498-1.645-0.748-2.829-0.748c-2.682,0-5.511,0.764-8.488,2.291v-6.477c1.294-0.563,2.915-1.021,4.864-1.381
		c1.948-0.357,3.616-0.537,5.004-0.537c4.069,0,7.019,0.869,8.851,2.607c1.832,1.738,2.748,4.641,2.748,8.711v13.211H157.317z
		 M151.424,332.854c0,0.656,0.207,1.193,0.62,1.615c0.413,0.42,1.001,0.631,1.766,0.631c1.044,0,1.89-0.391,2.537-1.17
		c0.646-0.779,0.97-1.777,0.97-2.992v-0.912l-3.367,0.467C152.266,330.773,151.424,331.561,151.424,332.854z"/>
	<path fill="#AB88FF" d="M196.858,337.648c0,4.598-1.446,8.18-4.338,10.744s-7.112,3.846-12.662,3.846
		c-1.497,0-2.946-0.117-4.349-0.35c-1.403-0.234-2.409-0.5-3.017-0.795v-7.811c0.998,0.623,2.167,1.123,3.507,1.496
		c1.341,0.375,2.533,0.563,3.578,0.563c2.229,0,4.014-0.539,5.355-1.615c1.34-1.074,2.011-2.502,2.011-4.277v-1.475h-0.094
		c-0.717,1.092-1.703,1.965-2.958,2.619c-1.255,0.654-2.6,0.982-4.034,0.982c-3.086,0-5.526-1.072-7.319-3.215
		c-1.793-2.143-2.689-5.102-2.689-8.875c0-2.586,0.467-4.871,1.403-6.85c0.935-1.98,2.237-3.504,3.905-4.572
		c1.668-1.066,3.508-1.602,5.519-1.602c2.759,0,4.817,1.021,6.173,3.063h0.094v-2.479h9.915V337.648z M187.107,328.342
		c0-1.402-0.315-2.518-0.947-3.344s-1.47-1.24-2.514-1.24c-1.123,0-2.019,0.5-2.689,1.498c-0.67,0.996-1.006,2.33-1.006,3.998
		c0,1.543,0.281,2.768,0.842,3.67c0.562,0.904,1.45,1.357,2.666,1.357c1.138,0,2.03-0.465,2.677-1.393
		c0.646-0.926,0.97-2.17,0.97-3.729V328.342z"/>
	<path fill="#AB88FF" d="M210.233,331.85c0.171,1.027,0.764,1.834,1.777,2.42c1.013,0.584,2.354,0.877,4.022,0.877
		c2.323,0,4.521-0.445,6.594-1.334v6.314c-2.416,0.967-5.347,1.449-8.792,1.449c-4.178,0-7.428-1.068-9.75-3.203
		c-2.323-2.137-3.484-5.074-3.484-8.816c0-2.572,0.51-4.84,1.531-6.803c1.021-1.965,2.533-3.504,4.537-4.619
		c2.003-1.115,4.212-1.672,6.629-1.672c2.479,0,4.599,0.484,6.36,1.449c1.761,0.967,3.098,2.324,4.01,4.068
		c0.912,1.746,1.368,3.789,1.368,6.127v3.742H210.233z M216.219,326.635c0-2.76-0.99-4.139-2.97-4.139
		c-0.826,0-1.52,0.377-2.081,1.133c-0.561,0.758-0.889,1.758-0.982,3.006H216.219z"/>
	<path fill="#AB88FF" d="M266.118,340.992l-11.832-16.182c-0.936-1.277-1.699-2.432-2.292-3.461h-0.094
		c0.094,1.652,0.141,3.508,0.141,5.566v14.076h-9.354v-33.531h9.541l11.341,15.385c0.14,0.203,0.312,0.445,0.514,0.727
		c0.203,0.279,0.405,0.568,0.608,0.865c0.203,0.295,0.394,0.584,0.573,0.863c0.179,0.281,0.316,0.531,0.41,0.75h0.093
		c-0.093-0.688-0.14-1.871-0.14-3.555v-15.035h9.353v33.531H266.118z"/>
	<path fill="#AB88FF" d="M307.296,328.6c0,4.037-1.221,7.209-3.66,9.516s-5.849,3.461-10.229,3.461
		c-4.349,0-7.736-1.125-10.16-3.379c-2.424-2.252-3.636-5.357-3.636-9.318c0-2.541,0.569-4.746,1.707-6.617
		c1.138-1.871,2.759-3.305,4.864-4.303c2.104-0.996,4.528-1.496,7.272-1.496c2.837,0,5.296,0.523,7.377,1.566
		c2.081,1.045,3.679,2.494,4.794,4.35C306.738,324.234,307.296,326.307,307.296,328.6z M297.194,328.645
		c0-3.258-1.248-4.887-3.741-4.887c-2.495,0-3.742,1.707-3.742,5.121c0,3.602,1.263,5.402,3.788,5.402
		C295.962,334.281,297.194,332.402,297.194,328.645z"/>
	<path fill="#AB88FF" d="M327.872,340.664c-0.451,0.219-1.191,0.426-2.221,0.619c-1.029,0.195-2.268,0.293-3.719,0.293
		c-2.774,0-4.945-0.764-6.512-2.291s-2.35-3.703-2.35-6.523v-8.816h-3.765v-6.898h3.765v-4.699l9.82-2.713v7.412h4.98v6.898h-4.98
		v7.18c0,2.104,0.834,3.156,2.502,3.156c0.779,0,1.605-0.172,2.479-0.516V340.664z"/>
	<path fill="#AB88FF" d="M355.301,315.363v6.033h9.961v7.904h-9.961v11.691h-10.102v-33.531h21.021v7.902H355.301z"/>
	<path fill="#AB88FF" d="M396.829,328.6c0,4.037-1.22,7.209-3.66,9.516c-2.439,2.307-5.85,3.461-10.229,3.461
		c-4.35,0-7.736-1.125-10.16-3.379c-2.424-2.252-3.636-5.357-3.636-9.318c0-2.541,0.568-4.746,1.707-6.617
		c1.138-1.871,2.759-3.305,4.863-4.303c2.104-0.996,4.528-1.496,7.272-1.496c2.837,0,5.296,0.523,7.377,1.566
		c2.081,1.045,3.679,2.494,4.794,4.35C396.271,324.234,396.829,326.307,396.829,328.6z M386.728,328.645
		c0-3.258-1.247-4.887-3.741-4.887s-3.741,1.707-3.741,5.121c0,3.602,1.263,5.402,3.788,5.402
		C385.496,334.281,386.728,332.402,386.728,328.645z"/>
	<path fill="#AB88FF" d="M415.793,340.992v-3.695h-0.094c-0.826,1.139-1.57,1.973-2.233,2.502c-0.662,0.531-1.41,0.959-2.244,1.287
		c-0.834,0.326-1.805,0.49-2.911,0.49c-2.619,0-4.614-0.85-5.986-2.549s-2.058-4.209-2.058-7.529v-14.451h9.961v13.703
		c0,2.354,0.881,3.531,2.643,3.531c0.966,0,1.695-0.32,2.187-0.959s0.736-1.543,0.736-2.713v-13.563h9.961v23.945H415.793z"/>
	<path fill="#AB88FF" d="M446.05,340.992V327.92c0-1.48-0.222-2.545-0.666-3.191s-1.166-0.971-2.163-0.971
		c-0.857,0-1.528,0.336-2.011,1.006c-0.483,0.67-0.725,1.527-0.725,2.572v13.656h-9.962v-23.945h9.962v3.742h0.093
		c0.795-1.371,1.863-2.436,3.204-3.191c1.34-0.756,2.798-1.135,4.372-1.135c5.238,0,7.856,3.305,7.856,9.914v14.615H446.05z"/>
	<path fill="#AB88FF" d="M476.495,340.992v-2.783h-0.094c-0.795,1.045-1.832,1.867-3.109,2.467c-1.278,0.6-2.541,0.9-3.788,0.9
		c-2.043,0-3.843-0.502-5.401-1.508c-1.56-1.006-2.725-2.412-3.496-4.221s-1.157-3.943-1.157-6.406c0-2.541,0.459-4.795,1.38-6.758
		c0.919-1.965,2.213-3.492,3.881-4.584s3.539-1.637,5.612-1.637c0.982,0,1.89,0.141,2.724,0.422
		c0.834,0.279,1.559,0.658,2.175,1.133c0.616,0.477,1.01,0.947,1.181,1.414h0.094v-13.889h9.961v35.449H476.495z M476.706,328.295
		c0-1.434-0.316-2.549-0.947-3.344c-0.632-0.795-1.485-1.193-2.561-1.193s-1.952,0.496-2.631,1.486
		c-0.678,0.988-1.017,2.311-1.017,3.963c0,3.383,1.169,5.074,3.507,5.074c1.107,0,1.991-0.457,2.654-1.369
		c0.662-0.912,0.994-2.24,0.994-3.986V328.295z"/>
</g>
<g>
	<g>
		<path fill="#AB88FF" d="M447.167,529.839c-0.344-15.4-15.711-24.642-28.193-30.162c-22.026-9.741-46.276-13.85-70.052-16.568
			c-30.147-3.447-60.795-3.499-90.996-0.707c-24.306,2.246-49.21,6.164-72.005,15.22c-13.853,5.503-32.702,14.945-33.087,32.218
			c-0.216,9.679,14.784,9.657,15,0c0.009-0.408,0.246-2.268-0.064-0.285c0.089-0.573,0.253-1.132,0.415-1.688
			c0.545-1.872-0.713,1.38,0.14-0.43c0.268-0.567,0.597-1.105,0.923-1.641c0.094-0.155,1.355-1.861,0.384-0.636
			c0.439-0.555,0.924-1.071,1.406-1.588c0.51-0.546,1.06-1.054,1.606-1.562c0.258-0.24,2.055-1.721,1.592-1.37
			c6.649-5.029,14.536-8.313,22.351-11.04c24.139-8.425,50.096-11.698,75.493-13.296c29.805-1.875,60.091-0.981,89.636,3.495
			c20.426,3.095,42.558,7.434,60.419,18.377c3.313,2.03,5.556,3.787,8.237,6.983c-0.999-1.19,0.279,0.476,0.384,0.636
			c0.455,0.696,0.828,1.441,1.183,2.192c-0.79-1.676,0.084,0.604,0.182,1.001c0.308,1.249,0.001-1.312,0.049,0.85
			C432.383,539.496,447.383,539.518,447.167,529.839L447.167,529.839z"/>
	</g>
</g>
<g>
	<circle fill="#AB88FF" cx="208.789" cy="432.253" r="21"/>
	<circle fill="#AB88FF" cx="391.211" cy="432.253" r="21"/>
</g>
</svg>
