<?xml version="1.0" encoding="utf-8"?>
<!-- Generator: Adobe Illustrator 16.0.0, SVG Export Plug-In . SVG Version: 6.00 Build 0)  -->
<!DOCTYPE svg PUBLIC "-//W3C//DTD SVG 1.1//EN" "http://www.w3.org/Graphics/SVG/1.1/DTD/svg11.dtd">
<svg version="1.1" id="Layer_1" xmlns="http://www.w3.org/2000/svg" xmlns:xlink="http://www.w3.org/1999/xlink" x="0px" y="0px"
	 width="50px" height="50px" viewBox="0 0 50 50" enable-background="new 0 0 50 50" xml:space="preserve">
<path fill-rule="evenodd" clip-rule="evenodd" fill="currentColor" d="M5.78,16.945c0.033-2.455,0.536-4.738,1.772-6.815
	c0.811-1.37,1.832-2.562,3.104-3.55c0.611-0.468,1.17-1.012,1.776-1.498c0.757-0.607,1.609-0.871,2.561-0.574
	c0.697,0.219,1.228,0.696,1.735,1.214c0.842,0.878,1.476,1.917,2.125,2.931c0.693,1.09,1.393,2.165,1.836,3.392
	c0.43,1.163,0.576,2.331,0.027,3.51c-0.277,0.612-0.734,1.101-1.234,1.55c-0.807,0.725-1.666,1.398-2.539,2.055
	c-0.822,0.627-1.215,1.516-1.153,2.563c0.085,1.468,0.736,2.733,1.5,3.94c1.521,2.409,3.382,4.53,5.431,6.477
	c0.939,0.889,1.952,1.698,3.12,2.277c0.826,0.404,1.687,0.675,2.636,0.485c0.605-0.126,1.123-0.427,1.545-0.86
	c0.871-0.897,1.771-1.751,2.762-2.511c1.229-0.941,2.57-1.037,3.971-0.486c1.258,0.486,2.305,1.305,3.304,2.166
	c1.013,0.865,2.068,1.696,2.944,2.718c0.557,0.663,1.062,1.365,1.191,2.266c0.122,0.876-0.206,1.63-0.809,2.205
	c-1.12,1.053-2.22,2.145-3.496,3.029c-1.512,1.03-3.169,1.71-4.967,1.999c-2.725,0.448-5.373,0.08-7.926-0.916
	c-2.254-0.864-4.275-2.114-6.184-3.583c-2.658-2.039-4.982-4.413-7.137-6.978C12,31.972,10.46,29.883,9.152,27.646
	c-1.139-1.935-2.072-3.955-2.691-6.111C6.033,20.008,5.805,18.465,5.78,16.945z"/>
</svg>
