<?xml version="1.0" encoding="utf-8"?>
<!-- Generator: Adobe Illustrator 16.0.0, SVG Export Plug-In . SVG Version: 6.00 Build 0)  -->
<!DOCTYPE svg PUBLIC "-//W3C//DTD SVG 1.1//EN" "http://www.w3.org/Graphics/SVG/1.1/DTD/svg11.dtd">
<svg version="1.1" id="Layer_1" xmlns="http://www.w3.org/2000/svg" xmlns:xlink="http://www.w3.org/1999/xlink" x="0px" y="0px"
	 width="50px" height="50px" viewBox="0 0 50 50" enable-background="new 0 0 50 50" xml:space="preserve">
<g>
	<path fill="currentColor" d="M35.15,23.809c0.203-0.238,0.324-0.344,0.563-0.256c0.206,0.084,0.447,0.135,0.652,0.186l0.103,0.02
		c0.599,0.119,1.201,0.188,1.8,0.188c4.544,0,8.145-3.652,8.197-8.314c0.033-0.826-0.208-1.732-0.466-2.607
		c-0.068-0.223-0.271-0.908-0.819-0.908c-0.26,0-0.534,0.152-0.842,0.479c-0.515,0.533-0.978,0.994-1.423,1.408
		c-0.43,0.428-0.789,0.787-1.063,1.078c-0.55,0.566-0.876,0.91-1.113,0.91c-0.241,0-0.582-0.359-1.217-0.994
		c-0.293-0.275-0.636-0.637-1.08-1.047c-0.294-0.293-0.447-0.531-0.447-0.754s0.171-0.48,0.496-0.789
		c0.653-0.582,1.271-1.217,1.853-1.818c0.224-0.223,0.445-0.445,0.65-0.668c0.566-0.549,0.894-0.979,0.789-1.371
		c-0.103-0.395-0.582-0.582-1.389-0.789c-0.736-0.205-1.491-0.309-2.246-0.309c-3.926,0-7.234,2.813-8.04,6.842
		c-0.053,0.188-0.087,0.377-0.14,0.512l-1.971-0.564c-0.615-0.172-1.267-0.359-1.938-0.549c-2.349-0.668-3.958-1.129-4.387-1.268
		c-0.224-0.139-0.466-0.291-0.669-0.447c-0.618-0.461-1.527-1.32-2.504-2.33c-0.103-0.104-0.205-0.238-0.309-0.359
		c-0.376-0.465-0.702-0.67-1.063-0.67c-0.344,0-0.686,0.188-1.133,0.652c-4.012,4.166-7.956,8.213-11.761,12.018
		c-0.378,0.361-0.704,0.756-0.704,1.219c0,0.361,0.223,0.721,0.668,1.164l1.304,1.27c1.113,1.098,2.229,2.211,3.343,3.328
		l1.132,1.131c1.39,1.389,2.795,2.795,4.202,4.184c0.514,0.496,0.445,0.666,0.29,0.857c-0.053,0.086-0.136,0.17-0.29,0.291
		l-1.801,1.799c-1.372,1.563-1.354,3.604,0.086,5.008c0.667,0.652,1.543,1.012,2.434,1.012c0.858,0,1.682-0.309,2.401-0.926
		c0.017-0.018,0.05-0.035,0.087-0.068c0.497-0.463,0.992-0.959,1.456-1.439c0.171-0.174,0.343-0.344,0.514-0.516
		c0.326-0.326,0.446-0.377,0.823-0.24c2.23,0.908,3.805,0.223,4.647-2.021c0.103-0.291,0.103-0.291,0.188-0.291
		c0.05,0,0.119,0,0.188,0.016c0.497,0.102,0.926,0.154,1.304,0.154c1.491,0,2.383-0.756,2.95-2.539
		c0.103-0.324,0.152-0.324,0.274-0.324c0.068,0,0.137,0,0.237,0.016c1.785,0.291,3.071-0.48,3.653-2.16
		c0.155-0.428,0.225-0.463,0.359-0.463c0.069,0,0.191,0.018,0.327,0.051c1.526,0.412,2.916-0.135,3.669-1.439
		c0.756-1.303,0.566-2.742-0.55-3.924c-0.377-0.43-0.804-0.842-1.217-1.236c-0.271-0.273-0.548-0.549-0.822-0.824
		c-0.035-0.033-0.086-0.084-0.137-0.117c-0.24-0.207-0.26-0.26-0.138-0.395L35.15,23.809z M15.807,35.211l2.572,2.57
		c0.087,0.104,0.155,0.191,0.24,0.277c0.068,0.049,0.104,0.1,0.121,0.1c-0.24,0.207-0.465,0.43-0.703,0.703l-1.682,1.684
		c-0.394,0.271-0.805,0.459-1.287,0.563h-0.152c-0.736-0.016-1.405-0.393-1.784-1.027c-0.376-0.635-0.409-1.406-0.068-2.057
		c0.068-0.139,0.157-0.291,0.258-0.395l2.333-2.334c0,0,0.103-0.1,0.119-0.1L15.807,35.211z M36.264,27.271
		c0.873,0.928,0.961,1.939,0.222,2.709c-0.753,0.771-1.749,0.721-2.726-0.119c-0.121-0.086-0.224-0.238-0.342-0.377
		c-0.242-0.326-0.532-0.703-0.945-0.703c-0.136,0-0.273,0.053-0.41,0.121c-0.24,0.152-0.377,0.309-0.41,0.514
		c-0.052,0.307,0.152,0.564,0.359,0.822c0.119,0.154,0.256,0.326,0.273,0.463c0.138,0.822-0.018,1.404-0.531,1.852
		c-0.582,0.498-1.253,0.584-1.989,0.238c-0.138-0.049-0.256-0.17-0.394-0.291c-0.088-0.066-0.172-0.135-0.274-0.205
		c-0.069-0.068-0.155-0.154-0.241-0.256c-0.172-0.207-0.377-0.447-0.701-0.447c-0.121,0-0.259,0.053-0.395,0.137
		c-0.208,0.137-0.309,0.293-0.344,0.465c-0.051,0.271,0.12,0.514,0.274,0.721c0.052,0.086,0.122,0.17,0.153,0.256
		c0.464,0.943,0.311,1.715-0.461,2.316c-0.739,0.564-1.51,0.512-2.248-0.105c-0.239-0.205-0.463-0.43-0.685-0.65
		c-0.104-0.104-0.206-0.205-0.311-0.291c-0.187-0.191-0.393-0.361-0.65-0.361c-0.138,0-0.258,0.053-0.376,0.137
		c-0.191,0.121-0.293,0.293-0.327,0.48c-0.017,0.209,0.053,0.447,0.257,0.686c0.465,0.584,0.565,1.236,0.275,1.904
		c-0.275,0.652-0.84,1.047-1.51,1.047c-0.549,0-1.097-0.258-1.576-0.721l-0.344-0.344c-0.172-0.172-0.359-0.342-0.532-0.531
		c-1.148-1.133-2.297-2.279-3.446-3.43l-2.689-2.689c-0.311-0.328-0.637-0.637-0.946-0.963c-0.736-0.736-1.491-1.49-2.261-2.229
		l-0.052-0.068c-0.087-0.068-0.173-0.154-0.258-0.238l-1.509-1.512c-0.069-0.066-0.139-0.119-0.189-0.188l-0.119-0.119
		c-0.052-0.053-0.104-0.104-0.138-0.154c-0.926-0.959-1.628-1.682-2.331-2.314c-0.155-0.139-0.224-0.258-0.224-0.326
		c0-0.086,0.068-0.207,0.241-0.377c4.131-4.186,7.836-7.975,11.316-11.557c0.053-0.07,0.101-0.102,0.152-0.139
		c0.72,0.756,2.248,2.297,3.344,3.086c0.309,0.223,0.582,0.379,0.807,0.465c0.205,0.068,0.738,0.223,1.543,0.461
		c1.646,0.48,4.184,1.201,5.917,1.697l0.925,0.26c0.395,0.154,0.616,0.393,0.721,0.77c0.104,0.787,0.033,1.408-0.191,1.75
		c-0.066,0-0.152-0.051-0.256-0.121c-0.187-0.172-0.395-0.256-0.563-0.256c-0.173,0-0.396,0.068-0.586,0.395
		c-0.272,0.496,0.068,0.822,0.292,1.01l0.086,0.088c1.354,1.336,2.691,2.674,4.047,4.012l1.216,1.199
		c0.225,0.205,0.429,0.43,0.653,0.635C35.319,26.348,35.801,26.809,36.264,27.271z M34.018,22.9
		c-0.036,0.049-0.053,0.068-0.053,0.068c-0.052-0.02-0.152-0.137-0.205-0.189c-0.033-0.035-0.068-0.068-0.103-0.104
		c-0.31-0.309-0.617-0.6-0.925-0.906c-0.481-0.498-0.979-0.996-1.492-1.459c-0.273-0.258-0.24-0.361-0.224-0.395
		c0.017-0.035,0.05-0.086,0.137-0.154l0.034-0.051c0.377-0.582,0.532-1.373,0.445-2.383c-0.051-0.516-0.154-0.961-0.224-1.201
		c-0.169-2.006,0.516-3.773,2.043-5.281c1.269-1.232,2.656-1.834,4.252-1.834c0.669,0,1.39,0.119,2.127,0.326
		c-0.173,0.17-0.36,0.326-0.551,0.479c-0.651,0.566-1.303,1.131-1.92,1.732c-1.199,1.182-1.199,2.076-0.017,3.309
		c0.6,0.617,1.269,1.303,1.955,1.955c0.927,0.857,1.954,0.857,2.862-0.018c0.651-0.652,1.304-1.32,1.989-2.023
		c0.205-0.205,0.429-0.428,0.652-0.65c0.531,2.398,0.032,4.406-1.527,6.139c-1.73,1.902-3.873,2.623-6.377,2.107
		c-0.155-0.033-0.326-0.084-0.481-0.121c-0.344-0.102-0.685-0.186-1.028-0.186C34.823,22.061,34.377,22.334,34.018,22.9z"/>
</g>
</svg>
