<?xml version="1.0" encoding="utf-8"?>
<!-- Generator: Adobe Illustrator 16.0.0, SVG Export Plug-In . SVG Version: 6.00 Build 0)  -->
<!DOCTYPE svg PUBLIC "-//W3C//DTD SVG 1.1//EN" "http://www.w3.org/Graphics/SVG/1.1/DTD/svg11.dtd">
<svg version="1.1" id="Layer_1" xmlns="http://www.w3.org/2000/svg" xmlns:xlink="http://www.w3.org/1999/xlink" x="0px" y="0px"
	 width="50px" height="50px" viewBox="0 0 50 50" enable-background="new 0 0 50 50" xml:space="preserve">
<g>
	<g>
		<g>
			<path fill="currentColor" d="M32.189,6.422H17.926c-0.847,0-1.545,0.682-1.545,1.528v14.263c0,0.846,0.698,1.527,1.545,1.527h14.264
				c0.846,0,1.546-0.682,1.546-1.527V7.95C33.735,7.104,33.035,6.422,32.189,6.422z M18.313,21.844V8.318h13.507v13.525H18.313z"/>
		</g>
	</g>
	<g>
		<g>
			<path fill="currentColor" d="M37.715,25.194c-5.078,0-9.201,4.12-9.201,9.201c0,5.062,4.123,9.183,9.201,9.183
				c5.062,0,9.185-4.121,9.185-9.183C46.899,29.314,42.776,25.194,37.715,25.194z M37.715,41.684c-4.029,0-7.307-3.276-7.307-7.288
				c0-4.031,3.277-7.308,7.307-7.308s7.289,3.276,7.289,7.308C45.004,38.407,41.744,41.684,37.715,41.684z"/>
		</g>
	</g>
	<g>
		<g>
			<path fill="currentColor" d="M12.633,24.476l-0.147-0.11l-9.385,6.828l3.589,11.024h11.595l3.532-10.877l0.057-0.147L12.633,24.476z
				 M8.014,40.378l-2.76-8.485l7.231-5.265l7.231,5.265l-2.76,8.485H8.014z"/>
		</g>
	</g>
</g>
</svg>
