<?xml version="1.0" encoding="utf-8"?>
<!-- Generator: Adobe Illustrator 16.0.0, SVG Export Plug-In . SVG Version: 6.00 Build 0)  -->
<!DOCTYPE svg PUBLIC "-//W3C//DTD SVG 1.1//EN" "http://www.w3.org/Graphics/SVG/1.1/DTD/svg11.dtd">
<svg version="1.1" id="Layer_1" xmlns="http://www.w3.org/2000/svg" xmlns:xlink="http://www.w3.org/1999/xlink" x="0px" y="0px"
	 width="50px" height="50px" viewBox="0 0 50 50" enable-background="new 0 0 50 50" xml:space="preserve">
<g>
	<path fill="none" stroke="#D3D3D3" stroke-miterlimit="10" d="M31.81,17.738c0.248,0.49,0.896,0.953,1.441,1.027l11.467,1.563
		c0.545,0.074,0.672,0.451,0.281,0.839l-8.213,8.15c-0.391,0.388-0.63,1.147-0.532,1.688l2.055,11.391
		c0.098,0.541-0.222,0.778-0.711,0.526l-10.29-5.3c-0.488-0.252-1.285-0.245-1.77,0.016l-10.197,5.479
		c-0.484,0.261-0.809,0.029-0.721-0.514l1.857-11.425c0.088-0.543-0.165-1.299-0.563-1.679l-8.357-8.005
		c-0.397-0.38-0.277-0.76,0.266-0.844l11.438-1.768c0.544-0.084,1.185-0.558,1.423-1.053l5.032-10.423
		c0.239-0.495,0.637-0.498,0.885-0.008L31.81,17.738z"/>
</g>
</svg>
