<?xml version="1.0" encoding="utf-8"?>
<!-- Generator: Adobe Illustrator 16.0.0, SVG Export Plug-In . SVG Version: 6.00 Build 0)  -->
<!DOCTYPE svg PUBLIC "-//W3C//DTD SVG 1.1//EN" "http://www.w3.org/Graphics/SVG/1.1/DTD/svg11.dtd">
<svg version="1.1" id="Layer_1" xmlns="http://www.w3.org/2000/svg" xmlns:xlink="http://www.w3.org/1999/xlink" x="0px" y="0px"
	 width="50px" height="50px" viewBox="0 0 50 50" enable-background="new 0 0 50 50" xml:space="preserve">
<g>
	<path fill-rule="evenodd" clip-rule="evenodd" fill="#AB88FF" d="M30.728,17.483c0.247,0.491,0.896,0.953,1.441,1.027l11.902,1.62
		c0.545,0.074,0.672,0.451,0.281,0.839l-8.529,8.459c-0.391,0.388-0.63,1.146-0.532,1.688l2.137,11.818
		c0.098,0.542-0.223,0.778-0.711,0.526l-10.68-5.499c-0.488-0.252-1.285-0.245-1.77,0.016l-10.58,5.685
		c-0.484,0.261-0.809,0.029-0.721-0.514l1.926-11.854c0.088-0.543-0.165-1.299-0.563-1.679l-8.67-8.308
		c-0.397-0.38-0.277-0.76,0.266-0.844l11.869-1.833c0.543-0.084,1.184-0.558,1.423-1.053l5.219-10.815
		c0.239-0.495,0.638-0.498,0.885-0.008L30.728,17.483z"/>
</g>
</svg>
