<?xml version="1.0" encoding="utf-8"?>
<!-- Generator: Adobe Illustrator 16.0.0, SVG Export Plug-In . SVG Version: 6.00 Build 0)  -->
<!DOCTYPE svg PUBLIC "-//W3C//DTD SVG 1.1//EN" "http://www.w3.org/Graphics/SVG/1.1/DTD/svg11.dtd">
<svg version="1.1" id="Layer_1" xmlns="http://www.w3.org/2000/svg" xmlns:xlink="http://www.w3.org/1999/xlink" x="0px" y="0px"
	 width="120px" height="120px" viewBox="0 0 120 120" enable-background="new 0 0 120 120" xml:space="preserve">
<path fill-rule="evenodd" clip-rule="evenodd" fill="currentColor" d="M42.642,80.08c-8.184-0.691-13.654-4.797-16.697-12.479
	c2.775,0.373,5.363,0.4,7.943-0.339c-10.176-2.449-14.463-11.469-14.092-17.766c2.449,1.263,4.996,2.055,7.973,2.15
	c-3.912-2.814-6.43-6.383-7.439-10.902c-1.008-4.524-0.352-8.833,1.955-12.954c0.881,0.977,1.691,1.923,2.553,2.821
	c7.242,7.596,16.006,12.514,26.236,14.792c2.5,0.556,5.039,0.858,7.596,1.063c0.58,0.044,0.57-0.157,0.488-0.62
	c-0.973-5.35,0.078-10.262,3.508-14.508c4.371-5.414,10.105-7.614,17.01-6.599c3.74,0.552,6.941,2.245,9.623,4.897
	c0.363,0.354,0.662,0.457,1.188,0.339c3.432-0.772,6.688-1.981,9.762-3.674c0.236-0.131,0.443-0.374,0.85-0.247
	c-1.4,4.03-3.9,7.152-7.652,9.555c3.527-0.324,6.68-1.341,9.814-2.463c-1.139,1.921-2.539,3.552-4.047,5.093
	c-1.236,1.257-2.551,2.436-3.992,3.471c-0.42,0.301-0.531,0.643-0.523,1.139c0.195,14.535-4.703,27.139-14.666,37.666
	c-7.236,7.647-16.186,12.27-26.541,14.124c-8.135,1.458-16.184,1.063-24.146-1.185c-3.754-1.054-9.27-3.519-12.602-5.809
	C26.269,88.265,34.942,85.998,42.642,80.08z"/>
</svg>
